<?xml version="1.0"?>
<svg xmlns="http://www.w3.org/2000/svg" xmlns:xlink="http://www.w3.org/1999/xlink" viewBox="0 0 425.500000 276.000000" width="212.750000mm" height="138.000000mm" version="1.1">
<rect x="1.000000" y="1.000000" width="424.500000" height="275.000000" rx="0" ry="0" style="stroke:none;fill:#cccccc;"/>
<rect x="0.000000" y="0.000000" width="424.500000" height="275.000000" rx="0" ry="0" style="stroke:none;fill:#ffffff;"/>
<text x="10.000000" y="7.000000" font-family="Arial" font-size="7"></text>
<rect x="173.750000" y="229.000000" width="24.000000" height="24.000000" rx="0" ry="0" style="stroke:none;fill:#cccccc;"/>
<rect x="172.750000" y="228.000000" width="24.000000" height="24.000000" rx="0" ry="0" style="stroke:none;fill:#f44800;"/>
<text x="184.750000" y="242.000000" font-family="Arial" font-size="7" text-anchor="middle" fill="#FFFFFF">1</text>
<circle cx="174.750000" cy="230.000000" r="1"/>
<rect x="213.750000" y="225.000000" width="24.000000" height="24.000000" rx="0" ry="0" style="stroke:none;fill:#cccccc;"/>
<rect x="212.750000" y="224.000000" width="24.000000" height="24.000000" rx="0" ry="0" style="stroke:none;fill:#4B71A1;"/>
<text x="224.750000" y="238.000000" font-family="Arial" font-size="7" text-anchor="middle" fill="#FFFFFF">+</text>
<circle cx="214.750000" cy="226.000000" r="1"/>
<line x1="209.750000" y1="231.000000" x2="212.750000" y2="232.000000"  transform="rotate(0.000000,212.750000,232.000000)" style="stroke: black; stroke-width:0.25;"/>
<line x1="209.750000" y1="233.000000" x2="212.750000" y2="232.000000"  transform="rotate(0.000000,212.750000,232.000000)" style="stroke: black; stroke-width:0.25;"/>
<line x1="209.750000" y1="239.000000" x2="212.750000" y2="240.000000"  transform="rotate(0.000000,212.750000,240.000000)" style="stroke: black; stroke-width:0.25;"/>
<line x1="209.750000" y1="241.000000" x2="212.750000" y2="240.000000"  transform="rotate(0.000000,212.750000,240.000000)" style="stroke: black; stroke-width:0.25;"/>
<rect x="268.850000" y="161.000000" width="25.800000" height="24.000000" rx="0" ry="0" style="stroke:none;fill:#cccccc;"/>
<rect x="267.850000" y="160.000000" width="25.800000" height="24.000000" rx="0" ry="0" style="stroke:none;fill:#f44800;"/>
<text x="280.750000" y="174.000000" font-family="Arial" font-size="7" text-anchor="middle" fill="#FFFFFF">192000</text>
<circle cx="291.650000" cy="182.000000" r="1"/>
<rect x="288.850000" y="129.000000" width="25.800000" height="24.000000" rx="0" ry="0" style="stroke:none;fill:#cccccc;"/>
<rect x="287.850000" y="128.000000" width="25.800000" height="24.000000" rx="0" ry="0" style="stroke:none;fill:#f44800;"/>
<text x="300.750000" y="142.000000" font-family="Arial" font-size="7" text-anchor="middle" fill="#FFFFFF">1000</text>
<circle cx="311.650000" cy="150.000000" r="1"/>
<rect x="269.500000" y="97.000000" width="64.500000" height="24.000000" rx="0" ry="0" style="stroke:none;fill:#cccccc;"/>
<rect x="268.500000" y="96.000000" width="64.500000" height="24.000000" rx="0" ry="0" style="stroke:none;fill:#4B71A1;"/>
<text x="300.750000" y="110.000000" font-family="Arial" font-size="7" text-anchor="middle" fill="#FFFFFF">fSamplingFreq</text>
<circle cx="331.000000" cy="118.000000" r="1"/>
<rect x="229.500000" y="113.000000" width="24.000000" height="24.000000" rx="0" ry="0" style="stroke:none;fill:#cccccc;"/>
<rect x="228.500000" y="112.000000" width="24.000000" height="24.000000" rx="0" ry="0" style="stroke:none;fill:#4B71A1;"/>
<text x="240.500000" y="126.000000" font-family="Arial" font-size="7" text-anchor="middle" fill="#FFFFFF">max</text>
<circle cx="250.500000" cy="134.000000" r="1"/>
<line x1="255.500000" y1="127.000000" x2="252.500000" y2="128.000000"  transform="rotate(0.000000,252.500000,128.000000)" style="stroke: black; stroke-width:0.25;"/>
<line x1="255.500000" y1="129.000000" x2="252.500000" y2="128.000000"  transform="rotate(0.000000,252.500000,128.000000)" style="stroke: black; stroke-width:0.25;"/>
<line x1="255.500000" y1="119.000000" x2="252.500000" y2="120.000000"  transform="rotate(0.000000,252.500000,120.000000)" style="stroke: black; stroke-width:0.25;"/>
<line x1="255.500000" y1="121.000000" x2="252.500000" y2="120.000000"  transform="rotate(0.000000,252.500000,120.000000)" style="stroke: black; stroke-width:0.25;"/>
<rect x="189.500000" y="129.000000" width="24.000000" height="24.000000" rx="0" ry="0" style="stroke:none;fill:#cccccc;"/>
<rect x="188.500000" y="128.000000" width="24.000000" height="24.000000" rx="0" ry="0" style="stroke:none;fill:#4B71A1;"/>
<text x="200.500000" y="142.000000" font-family="Arial" font-size="7" text-anchor="middle" fill="#FFFFFF">min</text>
<circle cx="210.500000" cy="150.000000" r="1"/>
<line x1="215.500000" y1="143.000000" x2="212.500000" y2="144.000000"  transform="rotate(0.000000,212.500000,144.000000)" style="stroke: black; stroke-width:0.25;"/>
<line x1="215.500000" y1="145.000000" x2="212.500000" y2="144.000000"  transform="rotate(0.000000,212.500000,144.000000)" style="stroke: black; stroke-width:0.25;"/>
<line x1="215.500000" y1="135.000000" x2="212.500000" y2="136.000000"  transform="rotate(0.000000,212.500000,136.000000)" style="stroke: black; stroke-width:0.25;"/>
<line x1="215.500000" y1="137.000000" x2="212.500000" y2="136.000000"  transform="rotate(0.000000,212.500000,136.000000)" style="stroke: black; stroke-width:0.25;"/>
<line x1="179.500000" y1="87.000000" x2="179.500000" y2="193.000000"  style="stroke: black; stroke-linecap:round; stroke-width:0.25; stroke-dasharray:3,3;"/>
<line x1="179.500000" y1="193.000000" x2="342.000000" y2="193.000000"  style="stroke: black; stroke-linecap:round; stroke-width:0.25; stroke-dasharray:3,3;"/>
<line x1="342.000000" y1="193.000000" x2="342.000000" y2="87.000000"  style="stroke: black; stroke-linecap:round; stroke-width:0.25; stroke-dasharray:3,3;"/>
<line x1="179.500000" y1="87.000000" x2="184.500000" y2="87.000000"  style="stroke: black; stroke-linecap:round; stroke-width:0.25; stroke-dasharray:3,3;"/>
<line x1="197.400000" y1="87.000000" x2="342.000000" y2="87.000000"  style="stroke: black; stroke-linecap:round; stroke-width:0.25; stroke-dasharray:3,3;"/>
<text x="184.500000" y="89.000000" font-family="Arial" font-size="7">SR</text>
<rect x="165.000000" y="45.000000" width="193.500000" height="24.000000" rx="0" ry="0" style="stroke:none;fill:#cccccc;"/>
<rect x="164.000000" y="44.000000" width="193.500000" height="24.000000" rx="0" ry="0" style="stroke:none;fill:#477881;"/>
<text x="260.750000" y="58.000000" font-family="Arial" font-size="7" text-anchor="middle" fill="#FFFFFF">hslider(freq, 440.0f, 1.0f, 20000.0f, 0.01f)</text>
<circle cx="355.500000" cy="66.000000" r="1"/>
<line x1="155.000000" y1="35.000000" x2="155.000000" y2="77.000000"  style="stroke: black; stroke-linecap:round; stroke-width:0.25; stroke-dasharray:3,3;"/>
<line x1="155.000000" y1="77.000000" x2="366.500000" y2="77.000000"  style="stroke: black; stroke-linecap:round; stroke-width:0.25; stroke-dasharray:3,3;"/>
<line x1="366.500000" y1="77.000000" x2="366.500000" y2="35.000000"  style="stroke: black; stroke-linecap:round; stroke-width:0.25; stroke-dasharray:3,3;"/>
<line x1="155.000000" y1="35.000000" x2="160.000000" y2="35.000000"  style="stroke: black; stroke-linecap:round; stroke-width:0.25; stroke-dasharray:3,3;"/>
<line x1="179.350000" y1="35.000000" x2="366.500000" y2="35.000000"  style="stroke: black; stroke-linecap:round; stroke-width:0.25; stroke-dasharray:3,3;"/>
<text x="160.000000" y="37.000000" font-family="Arial" font-size="7">freq</text>
<rect x="115.000000" y="103.000000" width="24.000000" height="24.000000" rx="0" ry="0" style="stroke:none;fill:#cccccc;"/>
<rect x="114.000000" y="102.000000" width="24.000000" height="24.000000" rx="0" ry="0" style="stroke:none;fill:#4B71A1;"/>
<text x="126.000000" y="116.000000" font-family="Arial" font-size="7" text-anchor="middle" fill="#FFFFFF">/</text>
<circle cx="136.000000" cy="124.000000" r="1"/>
<line x1="141.000000" y1="117.000000" x2="138.000000" y2="118.000000"  transform="rotate(0.000000,138.000000,118.000000)" style="stroke: black; stroke-width:0.25;"/>
<line x1="141.000000" y1="119.000000" x2="138.000000" y2="118.000000"  transform="rotate(0.000000,138.000000,118.000000)" style="stroke: black; stroke-width:0.25;"/>
<line x1="141.000000" y1="109.000000" x2="138.000000" y2="110.000000"  transform="rotate(0.000000,138.000000,110.000000)" style="stroke: black; stroke-width:0.25;"/>
<line x1="141.000000" y1="111.000000" x2="138.000000" y2="110.000000"  transform="rotate(0.000000,138.000000,110.000000)" style="stroke: black; stroke-width:0.25;"/>
<rect x="83.000000" y="103.000000" width="24.000000" height="24.000000" rx="0" ry="0" style="stroke:none;fill:#cccccc;"/>
<rect x="82.000000" y="102.000000" width="24.000000" height="24.000000" rx="0" ry="0" style="stroke:none;fill:#4B71A1;"/>
<text x="94.000000" y="116.000000" font-family="Arial" font-size="7" text-anchor="middle" fill="#FFFFFF">int</text>
<circle cx="104.000000" cy="124.000000" r="1"/>
<line x1="109.000000" y1="113.000000" x2="106.000000" y2="114.000000"  transform="rotate(0.000000,106.000000,114.000000)" style="stroke: black; stroke-width:0.25;"/>
<line x1="109.000000" y1="115.000000" x2="106.000000" y2="114.000000"  transform="rotate(0.000000,106.000000,114.000000)" style="stroke: black; stroke-width:0.25;"/>
<line x1="73.000000" y1="25.000000" x2="73.000000" y2="203.000000"  style="stroke: black; stroke-linecap:round; stroke-width:0.25; stroke-dasharray:3,3;"/>
<line x1="73.000000" y1="203.000000" x2="376.500000" y2="203.000000"  style="stroke: black; stroke-linecap:round; stroke-width:0.25; stroke-dasharray:3,3;"/>
<line x1="376.500000" y1="203.000000" x2="376.500000" y2="25.000000"  style="stroke: black; stroke-linecap:round; stroke-width:0.25; stroke-dasharray:3,3;"/>
<line x1="73.000000" y1="25.000000" x2="78.000000" y2="25.000000"  style="stroke: black; stroke-linecap:round; stroke-width:0.25; stroke-dasharray:3,3;"/>
<line x1="126.375000" y1="25.000000" x2="376.500000" y2="25.000000"  style="stroke: black; stroke-linecap:round; stroke-width:0.25; stroke-dasharray:3,3;"/>
<text x="78.000000" y="27.000000" font-family="Arial" font-size="7">periodinsamps</text>
<rect x="33.000000" y="107.000000" width="24.000000" height="24.000000" rx="0" ry="0" style="stroke:none;fill:#cccccc;"/>
<rect x="32.000000" y="106.000000" width="24.000000" height="24.000000" rx="0" ry="0" style="stroke:none;fill:#4B71A1;"/>
<text x="44.000000" y="120.000000" font-family="Arial" font-size="7" text-anchor="middle" fill="#FFFFFF">%</text>
<circle cx="54.000000" cy="128.000000" r="1"/>
<line x1="59.000000" y1="121.000000" x2="56.000000" y2="122.000000"  transform="rotate(0.000000,56.000000,122.000000)" style="stroke: black; stroke-width:0.25;"/>
<line x1="59.000000" y1="123.000000" x2="56.000000" y2="122.000000"  transform="rotate(0.000000,56.000000,122.000000)" style="stroke: black; stroke-width:0.25;"/>
<line x1="59.000000" y1="113.000000" x2="56.000000" y2="114.000000"  transform="rotate(0.000000,56.000000,114.000000)" style="stroke: black; stroke-width:0.25;"/>
<line x1="59.000000" y1="115.000000" x2="56.000000" y2="114.000000"  transform="rotate(0.000000,56.000000,114.000000)" style="stroke: black; stroke-width:0.25;"/>
<line x1="379.500000" y1="236.000000" x2="379.500000" y2="232.000000"  style="stroke:black; stroke-linecap:round; stroke-width:0.25;"/>
<line x1="379.500000" y1="232.000000" x2="383.500000" y2="232.000000"  style="stroke:black; stroke-linecap:round; stroke-width:0.25;"/>
<line x1="383.500000" y1="232.000000" x2="383.500000" y2="236.000000"  style="stroke:black; stroke-linecap:round; stroke-width:0.25;"/>
<line x1="15.000000" y1="15.000000" x2="15.000000" y2="261.000000"  style="stroke: black; stroke-linecap:round; stroke-width:0.25; stroke-dasharray:3,3;"/>
<line x1="15.000000" y1="261.000000" x2="410.500000" y2="261.000000"  style="stroke: black; stroke-linecap:round; stroke-width:0.25; stroke-dasharray:3,3;"/>
<line x1="410.500000" y1="261.000000" x2="410.500000" y2="15.000000"  style="stroke: black; stroke-linecap:round; stroke-width:0.25; stroke-dasharray:3,3;"/>
<line x1="15.000000" y1="15.000000" x2="20.000000" y2="15.000000"  style="stroke: black; stroke-linecap:round; stroke-width:0.25; stroke-dasharray:3,3;"/>
<line x1="49.025000" y1="15.000000" x2="410.500000" y2="15.000000"  style="stroke: black; stroke-linecap:round; stroke-width:0.25; stroke-dasharray:3,3;"/>
<text x="20.000000" y="17.000000" font-family="Arial" font-size="7">process</text>
<line x1="412.500000" y1="137.000000" x2="415.500000" y2="138.000000"  transform="rotate(0.000000,415.500000,138.000000)" style="stroke: black; stroke-width:0.25;"/>
<line x1="412.500000" y1="139.000000" x2="415.500000" y2="138.000000"  transform="rotate(0.000000,415.500000,138.000000)" style="stroke: black; stroke-width:0.25;"/>
<line x1="28.000000" y1="118.000000" x2="28.000000" y2="118.000000"  style="stroke:black; stroke-linecap:round; stroke-width:0.25;"/>
<line x1="28.000000" y1="118.000000" x2="28.000000" y2="220.000000"  style="stroke:black; stroke-linecap:round; stroke-width:0.25;"/>
<line x1="28.000000" y1="220.000000" x2="28.000000" y2="220.000000"  style="stroke:black; stroke-linecap:round; stroke-width:0.25;"/>
<line x1="28.000000" y1="220.000000" x2="168.750000" y2="220.000000"  style="stroke:black; stroke-linecap:round; stroke-width:0.25;"/>
<line x1="32.000000" y1="118.000000" x2="28.000000" y2="118.000000"  style="stroke:black; stroke-linecap:round; stroke-width:0.25;"/>
<line x1="60.000000" y1="114.000000" x2="56.000000" y2="114.000000"  style="stroke:black; stroke-linecap:round; stroke-width:0.25;"/>
<line x1="60.000000" y1="122.000000" x2="56.000000" y2="122.000000"  style="stroke:black; stroke-linecap:round; stroke-width:0.25;"/>
<line x1="60.000000" y1="122.000000" x2="60.000000" y2="122.000000"  style="stroke:black; stroke-linecap:round; stroke-width:0.25;"/>
<line x1="60.000000" y1="212.000000" x2="60.000000" y2="122.000000"  style="stroke:black; stroke-linecap:round; stroke-width:0.25;"/>
<line x1="68.000000" y1="114.000000" x2="60.000000" y2="114.000000"  style="stroke:black; stroke-linecap:round; stroke-width:0.25;"/>
<line x1="68.000000" y1="212.000000" x2="60.000000" y2="212.000000"  style="stroke:black; stroke-linecap:round; stroke-width:0.25;"/>
<line x1="78.000000" y1="114.000000" x2="68.000000" y2="114.000000"  style="stroke:black; stroke-linecap:round; stroke-width:0.25;"/>
<line x1="82.000000" y1="114.000000" x2="78.000000" y2="114.000000"  style="stroke:black; stroke-linecap:round; stroke-width:0.25;"/>
<line x1="110.000000" y1="114.000000" x2="106.000000" y2="114.000000"  style="stroke:black; stroke-linecap:round; stroke-width:0.25;"/>
<line x1="110.000000" y1="114.000000" x2="110.000000" y2="114.000000"  style="stroke:black; stroke-linecap:round; stroke-width:0.25;"/>
<line x1="114.000000" y1="114.000000" x2="110.000000" y2="114.000000"  style="stroke:black; stroke-linecap:round; stroke-width:0.25;"/>
<line x1="142.000000" y1="110.000000" x2="138.000000" y2="110.000000"  style="stroke:black; stroke-linecap:round; stroke-width:0.25;"/>
<line x1="142.000000" y1="118.000000" x2="138.000000" y2="118.000000"  style="stroke:black; stroke-linecap:round; stroke-width:0.25;"/>
<line x1="142.000000" y1="118.000000" x2="142.000000" y2="118.000000"  style="stroke:black; stroke-linecap:round; stroke-width:0.25;"/>
<line x1="142.000000" y1="140.000000" x2="142.000000" y2="118.000000"  style="stroke:black; stroke-linecap:round; stroke-width:0.25;"/>
<line x1="150.000000" y1="56.000000" x2="150.000000" y2="56.000000"  style="stroke:black; stroke-linecap:round; stroke-width:0.25;"/>
<line x1="150.000000" y1="56.000000" x2="150.000000" y2="110.000000"  style="stroke:black; stroke-linecap:round; stroke-width:0.25;"/>
<line x1="150.000000" y1="110.000000" x2="142.000000" y2="110.000000"  style="stroke:black; stroke-linecap:round; stroke-width:0.25;"/>
<line x1="150.000000" y1="140.000000" x2="142.000000" y2="140.000000"  style="stroke:black; stroke-linecap:round; stroke-width:0.25;"/>
<line x1="160.000000" y1="56.000000" x2="150.000000" y2="56.000000"  style="stroke:black; stroke-linecap:round; stroke-width:0.25;"/>
<line x1="164.000000" y1="56.000000" x2="160.000000" y2="56.000000"  style="stroke:black; stroke-linecap:round; stroke-width:0.25;"/>
<line x1="168.750000" y1="220.000000" x2="184.750000" y2="220.000000"  style="stroke:black; stroke-linecap:round; stroke-width:0.25;"/>
<line x1="174.500000" y1="140.000000" x2="150.000000" y2="140.000000"  style="stroke:black; stroke-linecap:round; stroke-width:0.25;"/>
<line x1="184.500000" y1="140.000000" x2="174.500000" y2="140.000000"  style="stroke:black; stroke-linecap:round; stroke-width:0.25;"/>
<line x1="184.750000" y1="220.000000" x2="200.750000" y2="220.000000"  style="stroke:black; stroke-linecap:round; stroke-width:0.25;"/>
<line x1="188.500000" y1="140.000000" x2="184.500000" y2="140.000000"  style="stroke:black; stroke-linecap:round; stroke-width:0.25;"/>
<line x1="196.750000" y1="240.000000" x2="200.750000" y2="240.000000"  style="stroke:black; stroke-linecap:round; stroke-width:0.25;"/>
<line x1="200.750000" y1="220.000000" x2="208.750000" y2="220.000000"  style="stroke:black; stroke-linecap:round; stroke-width:0.25;"/>
<line x1="200.750000" y1="240.000000" x2="208.750000" y2="240.000000"  style="stroke:black; stroke-linecap:round; stroke-width:0.25;"/>
<line x1="208.750000" y1="220.000000" x2="208.750000" y2="232.000000"  style="stroke:black; stroke-linecap:round; stroke-width:0.25;"/>
<line x1="208.750000" y1="232.000000" x2="208.750000" y2="232.000000"  style="stroke:black; stroke-linecap:round; stroke-width:0.25;"/>
<line x1="208.750000" y1="232.000000" x2="212.750000" y2="232.000000"  style="stroke:black; stroke-linecap:round; stroke-width:0.25;"/>
<line x1="208.750000" y1="240.000000" x2="212.750000" y2="240.000000"  style="stroke:black; stroke-linecap:round; stroke-width:0.25;"/>
<line x1="216.500000" y1="136.000000" x2="212.500000" y2="136.000000"  style="stroke:black; stroke-linecap:round; stroke-width:0.25;"/>
<line x1="216.500000" y1="144.000000" x2="212.500000" y2="144.000000"  style="stroke:black; stroke-linecap:round; stroke-width:0.25;"/>
<line x1="216.500000" y1="144.000000" x2="216.500000" y2="144.000000"  style="stroke:black; stroke-linecap:round; stroke-width:0.25;"/>
<line x1="216.500000" y1="172.000000" x2="216.500000" y2="144.000000"  style="stroke:black; stroke-linecap:round; stroke-width:0.25;"/>
<line x1="224.500000" y1="124.000000" x2="224.500000" y2="124.000000"  style="stroke:black; stroke-linecap:round; stroke-width:0.25;"/>
<line x1="224.500000" y1="124.000000" x2="224.500000" y2="136.000000"  style="stroke:black; stroke-linecap:round; stroke-width:0.25;"/>
<line x1="224.500000" y1="136.000000" x2="216.500000" y2="136.000000"  style="stroke:black; stroke-linecap:round; stroke-width:0.25;"/>
<line x1="224.500000" y1="172.000000" x2="216.500000" y2="172.000000"  style="stroke:black; stroke-linecap:round; stroke-width:0.25;"/>
<line x1="224.750000" y1="212.000000" x2="68.000000" y2="212.000000"  style="stroke:black; stroke-linecap:round; stroke-width:0.25;"/>
<line x1="228.500000" y1="124.000000" x2="224.500000" y2="124.000000"  style="stroke:black; stroke-linecap:round; stroke-width:0.25;"/>
<line x1="236.750000" y1="236.000000" x2="240.750000" y2="236.000000"  style="stroke:black; stroke-linecap:round; stroke-width:0.25;"/>
<line x1="240.750000" y1="236.000000" x2="381.500000" y2="236.000000"  style="stroke:black; stroke-linecap:round; stroke-width:0.25;"/>
<line x1="256.500000" y1="120.000000" x2="252.500000" y2="120.000000"  style="stroke:black; stroke-linecap:round; stroke-width:0.25;"/>
<line x1="256.500000" y1="128.000000" x2="252.500000" y2="128.000000"  style="stroke:black; stroke-linecap:round; stroke-width:0.25;"/>
<line x1="256.500000" y1="128.000000" x2="256.500000" y2="128.000000"  style="stroke:black; stroke-linecap:round; stroke-width:0.25;"/>
<line x1="256.500000" y1="140.000000" x2="256.500000" y2="128.000000"  style="stroke:black; stroke-linecap:round; stroke-width:0.25;"/>
<line x1="263.850000" y1="172.000000" x2="224.500000" y2="172.000000"  style="stroke:black; stroke-linecap:round; stroke-width:0.25;"/>
<line x1="264.500000" y1="108.000000" x2="264.500000" y2="108.000000"  style="stroke:black; stroke-linecap:round; stroke-width:0.25;"/>
<line x1="264.500000" y1="108.000000" x2="264.500000" y2="120.000000"  style="stroke:black; stroke-linecap:round; stroke-width:0.25;"/>
<line x1="264.500000" y1="120.000000" x2="256.500000" y2="120.000000"  style="stroke:black; stroke-linecap:round; stroke-width:0.25;"/>
<line x1="264.500000" y1="140.000000" x2="256.500000" y2="140.000000"  style="stroke:black; stroke-linecap:round; stroke-width:0.25;"/>
<line x1="267.850000" y1="172.000000" x2="263.850000" y2="172.000000"  style="stroke:black; stroke-linecap:round; stroke-width:0.25;"/>
<line x1="268.500000" y1="108.000000" x2="264.500000" y2="108.000000"  style="stroke:black; stroke-linecap:round; stroke-width:0.25;"/>
<line x1="283.850000" y1="140.000000" x2="264.500000" y2="140.000000"  style="stroke:black; stroke-linecap:round; stroke-width:0.25;"/>
<line x1="287.850000" y1="140.000000" x2="283.850000" y2="140.000000"  style="stroke:black; stroke-linecap:round; stroke-width:0.25;"/>
<line x1="381.500000" y1="212.000000" x2="224.750000" y2="212.000000"  style="stroke:black; stroke-linecap:round; stroke-width:0.25;"/>
<line x1="381.500000" y1="212.000000" x2="381.500000" y2="212.000000"  style="stroke:black; stroke-linecap:round; stroke-width:0.25;"/>
<line x1="381.500000" y1="232.000000" x2="381.500000" y2="212.000000"  style="stroke:black; stroke-linecap:round; stroke-width:0.25;"/>
<line x1="381.500000" y1="236.000000" x2="383.500000" y2="236.000000"  style="stroke:black; stroke-linecap:round; stroke-width:0.25;"/>
<line x1="383.500000" y1="236.000000" x2="389.500000" y2="236.000000"  style="stroke:black; stroke-linecap:round; stroke-width:0.25;"/>
<line x1="389.500000" y1="138.000000" x2="397.500000" y2="138.000000"  style="stroke:black; stroke-linecap:round; stroke-width:0.25;"/>
<line x1="389.500000" y1="236.000000" x2="389.500000" y2="138.000000"  style="stroke:black; stroke-linecap:round; stroke-width:0.25;"/>
<line x1="389.500000" y1="236.000000" x2="389.500000" y2="236.000000"  style="stroke:black; stroke-linecap:round; stroke-width:0.25;"/>
<line x1="397.500000" y1="138.000000" x2="401.500000" y2="138.000000"  style="stroke:black; stroke-linecap:round; stroke-width:0.25;"/>
<line x1="401.500000" y1="138.000000" x2="405.500000" y2="138.000000"  style="stroke:black; stroke-linecap:round; stroke-width:0.25;"/>
<line x1="405.500000" y1="138.000000" x2="415.500000" y2="138.000000"  style="stroke:black; stroke-linecap:round; stroke-width:0.25;"/>
</svg>
