<?xml version="1.0"?>
<svg xmlns="http://www.w3.org/2000/svg" xmlns:xlink="http://www.w3.org/1999/xlink" viewBox="0 0 574.300000 328.000000" width="287.150000mm" height="164.000000mm" version="1.1">
<a xlink:href="sawchoice-0x7fd80ab96fc0.svg">
<rect x="1.000000" y="1.000000" width="573.300000" height="327.000000" rx="0" ry="0" style="stroke:none;fill:#cccccc;"/>
<rect x="0.000000" y="0.000000" width="573.300000" height="327.000000" rx="0" ry="0" style="stroke:none;fill:#ffffff;"/>
</a>
<text x="10.000000" y="7.000000" font-family="Arial" font-size="7"></text>
<rect x="33.000000" y="153.000000" width="25.800000" height="24.000000" rx="0" ry="0" style="stroke:none;fill:#cccccc;"/>
<rect x="32.000000" y="152.000000" width="25.800000" height="24.000000" rx="0" ry="0" style="stroke:none;fill:#47945E;"/>
<text x="44.900000" y="166.000000" font-family="Arial" font-size="7" text-anchor="middle" fill="#FFFFFF">freq</text>
<circle cx="34.000000" cy="154.000000" r="1"/>
<line x1="29.000000" y1="163.000000" x2="32.000000" y2="164.000000"  transform="rotate(0.000000,32.000000,164.000000)" style="stroke: black; stroke-width:0.25;"/>
<line x1="29.000000" y1="165.000000" x2="32.000000" y2="164.000000"  transform="rotate(0.000000,32.000000,164.000000)" style="stroke: black; stroke-width:0.25;"/>
<a xlink:href="saw1l-0x7fd80abd88a0.svg">
<rect x="66.800000" y="153.000000" width="25.800000" height="24.000000" rx="0" ry="0" style="stroke:none;fill:#cccccc;"/>
<rect x="65.800000" y="152.000000" width="25.800000" height="24.000000" rx="0" ry="0" style="stroke:none;fill:#003366;"/>
</a>
<a xlink:href="saw1l-0x7fd80abd88a0.svg">
<text x="78.700000" y="166.000000" font-family="Arial" font-size="7" text-anchor="middle" fill="#FFFFFF">saw1l</text>
</a>
<circle cx="67.800000" cy="154.000000" r="1"/>
<rect x="110.600000" y="153.000000" width="24.000000" height="24.000000" rx="0" ry="0" style="stroke:none;fill:#cccccc;"/>
<rect x="109.600000" y="152.000000" width="24.000000" height="24.000000" rx="0" ry="0" style="stroke:none;fill:#47945E;"/>
<text x="121.600000" y="166.000000" font-family="Arial" font-size="7" text-anchor="middle" fill="#FFFFFF">PM8</text>
<circle cx="111.600000" cy="154.000000" r="1"/>
<line x1="106.600000" y1="163.000000" x2="109.600000" y2="164.000000"  transform="rotate(0.000000,109.600000,164.000000)" style="stroke: black; stroke-width:0.25;"/>
<line x1="106.600000" y1="165.000000" x2="109.600000" y2="164.000000"  transform="rotate(0.000000,109.600000,164.000000)" style="stroke: black; stroke-width:0.25;"/>
<rect x="142.600000" y="137.000000" width="24.000000" height="24.000000" rx="0" ry="0" style="stroke:none;fill:#cccccc;"/>
<rect x="141.600000" y="136.000000" width="24.000000" height="24.000000" rx="0" ry="0" style="stroke:none;fill:#47945E;"/>
<text x="153.600000" y="150.000000" font-family="Arial" font-size="7" text-anchor="middle" fill="#FFFFFF">PM8</text>
<circle cx="143.600000" cy="138.000000" r="1"/>
<rect x="142.600000" y="169.000000" width="24.000000" height="24.000000" rx="0" ry="0" style="stroke:none;fill:#cccccc;"/>
<rect x="141.600000" y="168.000000" width="24.000000" height="24.000000" rx="0" ry="0" style="stroke:none;fill:#47945E;"/>
<text x="153.600000" y="182.000000" font-family="Arial" font-size="7" text-anchor="middle" fill="#FFFFFF">PM8</text>
<circle cx="143.600000" cy="170.000000" r="1"/>
<rect x="182.600000" y="153.000000" width="24.000000" height="24.000000" rx="0" ry="0" style="stroke:none;fill:#cccccc;"/>
<rect x="181.600000" y="152.000000" width="24.000000" height="24.000000" rx="0" ry="0" style="stroke:none;fill:#4B71A1;"/>
<text x="193.600000" y="166.000000" font-family="Arial" font-size="7" text-anchor="middle" fill="#FFFFFF">*</text>
<circle cx="183.600000" cy="154.000000" r="1"/>
<line x1="178.600000" y1="159.000000" x2="181.600000" y2="160.000000"  transform="rotate(0.000000,181.600000,160.000000)" style="stroke: black; stroke-width:0.25;"/>
<line x1="178.600000" y1="161.000000" x2="181.600000" y2="160.000000"  transform="rotate(0.000000,181.600000,160.000000)" style="stroke: black; stroke-width:0.25;"/>
<line x1="178.600000" y1="167.000000" x2="181.600000" y2="168.000000"  transform="rotate(0.000000,181.600000,168.000000)" style="stroke: black; stroke-width:0.25;"/>
<line x1="178.600000" y1="169.000000" x2="181.600000" y2="168.000000"  transform="rotate(0.000000,181.600000,168.000000)" style="stroke: black; stroke-width:0.25;"/>
<line x1="100.600000" y1="127.000000" x2="100.600000" y2="201.000000"  style="stroke: black; stroke-linecap:round; stroke-width:0.25; stroke-dasharray:3,3;"/>
<line x1="100.600000" y1="201.000000" x2="214.600000" y2="201.000000"  style="stroke: black; stroke-linecap:round; stroke-width:0.25; stroke-dasharray:3,3;"/>
<line x1="214.600000" y1="201.000000" x2="214.600000" y2="127.000000"  style="stroke: black; stroke-linecap:round; stroke-width:0.25; stroke-dasharray:3,3;"/>
<line x1="100.600000" y1="127.000000" x2="105.600000" y2="127.000000"  style="stroke: black; stroke-linecap:round; stroke-width:0.25; stroke-dasharray:3,3;"/>
<line x1="147.525000" y1="127.000000" x2="214.600000" y2="127.000000"  style="stroke: black; stroke-linecap:round; stroke-width:0.25; stroke-dasharray:3,3;"/>
<text x="105.600000" y="129.000000" font-family="Arial" font-size="7">Abstraction</text>
<a xlink:href="diff-0x7fd80ab667f0.svg">
<rect x="325.250000" y="25.000000" width="38.700000" height="24.000000" rx="0" ry="0" style="stroke:none;fill:#cccccc;"/>
<rect x="324.250000" y="24.000000" width="38.700000" height="24.000000" rx="0" ry="0" style="stroke:none;fill:#003366;"/>
</a>
<a xlink:href="diff-0x7fd80ab667f0.svg">
<text x="343.600000" y="38.000000" font-family="Arial" font-size="7" text-anchor="middle" fill="#FFFFFF">diff(1)</text>
</a>
<circle cx="326.250000" cy="26.000000" r="1"/>
<line x1="321.250000" y1="35.000000" x2="324.250000" y2="36.000000"  transform="rotate(0.000000,324.250000,36.000000)" style="stroke: black; stroke-width:0.25;"/>
<line x1="321.250000" y1="37.000000" x2="324.250000" y2="36.000000"  transform="rotate(0.000000,324.250000,36.000000)" style="stroke: black; stroke-width:0.25;"/>
<a xlink:href="Nc-0x7fd80ab3e700.svg">
<rect x="272.600000" y="57.000000" width="24.000000" height="24.000000" rx="0" ry="0" style="stroke:none;fill:#cccccc;"/>
<rect x="271.600000" y="56.000000" width="24.000000" height="24.000000" rx="0" ry="0" style="stroke:none;fill:#003366;"/>
</a>
<a xlink:href="Nc-0x7fd80ab3e700.svg">
<text x="283.600000" y="70.000000" font-family="Arial" font-size="7" text-anchor="middle" fill="#FFFFFF">Nc</text>
</a>
<circle cx="273.600000" cy="58.000000" r="1"/>
<rect x="272.600000" y="89.000000" width="24.000000" height="24.000000" rx="0" ry="0" style="stroke:none;fill:#cccccc;"/>
<rect x="271.600000" y="88.000000" width="24.000000" height="24.000000" rx="0" ry="0" style="stroke:none;fill:#f44800;"/>
<text x="283.600000" y="102.000000" font-family="Arial" font-size="7" text-anchor="middle" fill="#FFFFFF">1</text>
<circle cx="273.600000" cy="90.000000" r="1"/>
<rect x="312.600000" y="73.000000" width="24.000000" height="24.000000" rx="0" ry="0" style="stroke:none;fill:#cccccc;"/>
<rect x="311.600000" y="72.000000" width="24.000000" height="24.000000" rx="0" ry="0" style="stroke:none;fill:#4B71A1;"/>
<text x="323.600000" y="86.000000" font-family="Arial" font-size="7" text-anchor="middle" fill="#FFFFFF">-</text>
<circle cx="313.600000" cy="74.000000" r="1"/>
<line x1="308.600000" y1="79.000000" x2="311.600000" y2="80.000000"  transform="rotate(0.000000,311.600000,80.000000)" style="stroke: black; stroke-width:0.25;"/>
<line x1="308.600000" y1="81.000000" x2="311.600000" y2="80.000000"  transform="rotate(0.000000,311.600000,80.000000)" style="stroke: black; stroke-width:0.25;"/>
<line x1="308.600000" y1="87.000000" x2="311.600000" y2="88.000000"  transform="rotate(0.000000,311.600000,88.000000)" style="stroke: black; stroke-width:0.25;"/>
<line x1="308.600000" y1="89.000000" x2="311.600000" y2="88.000000"  transform="rotate(0.000000,311.600000,88.000000)" style="stroke: black; stroke-width:0.25;"/>
<rect x="292.600000" y="121.000000" width="24.000000" height="24.000000" rx="0" ry="0" style="stroke:none;fill:#cccccc;"/>
<rect x="291.600000" y="120.000000" width="24.000000" height="24.000000" rx="0" ry="0" style="stroke:none;fill:#f44800;"/>
<text x="303.600000" y="134.000000" font-family="Arial" font-size="7" text-anchor="middle" fill="#FFFFFF">1</text>
<circle cx="293.600000" cy="122.000000" r="1"/>
<rect x="352.600000" y="89.000000" width="24.000000" height="24.000000" rx="0" ry="0" style="stroke:none;fill:#cccccc;"/>
<rect x="351.600000" y="88.000000" width="24.000000" height="24.000000" rx="0" ry="0" style="stroke:none;fill:#4B71A1;"/>
<text x="363.600000" y="102.000000" font-family="Arial" font-size="7" text-anchor="middle" fill="#FFFFFF">+</text>
<circle cx="353.600000" cy="90.000000" r="1"/>
<line x1="348.600000" y1="95.000000" x2="351.600000" y2="96.000000"  transform="rotate(0.000000,351.600000,96.000000)" style="stroke: black; stroke-width:0.25;"/>
<line x1="348.600000" y1="97.000000" x2="351.600000" y2="96.000000"  transform="rotate(0.000000,351.600000,96.000000)" style="stroke: black; stroke-width:0.25;"/>
<line x1="348.600000" y1="103.000000" x2="351.600000" y2="104.000000"  transform="rotate(0.000000,351.600000,104.000000)" style="stroke: black; stroke-width:0.25;"/>
<line x1="348.600000" y1="105.000000" x2="351.600000" y2="104.000000"  transform="rotate(0.000000,351.600000,104.000000)" style="stroke: black; stroke-width:0.25;"/>
<a xlink:href="Nc-0x7fd80ab3e700.svg">
<rect x="232.600000" y="153.000000" width="24.000000" height="24.000000" rx="0" ry="0" style="stroke:none;fill:#cccccc;"/>
<rect x="231.600000" y="152.000000" width="24.000000" height="24.000000" rx="0" ry="0" style="stroke:none;fill:#003366;"/>
</a>
<a xlink:href="Nc-0x7fd80ab3e700.svg">
<text x="243.600000" y="166.000000" font-family="Arial" font-size="7" text-anchor="middle" fill="#FFFFFF">Nc</text>
</a>
<circle cx="233.600000" cy="154.000000" r="1"/>
<rect x="232.600000" y="185.000000" width="24.000000" height="24.000000" rx="0" ry="0" style="stroke:none;fill:#cccccc;"/>
<rect x="231.600000" y="184.000000" width="24.000000" height="24.000000" rx="0" ry="0" style="stroke:none;fill:#f44800;"/>
<text x="243.600000" y="198.000000" font-family="Arial" font-size="7" text-anchor="middle" fill="#FFFFFF">1</text>
<circle cx="233.600000" cy="186.000000" r="1"/>
<rect x="272.600000" y="169.000000" width="24.000000" height="24.000000" rx="0" ry="0" style="stroke:none;fill:#cccccc;"/>
<rect x="271.600000" y="168.000000" width="24.000000" height="24.000000" rx="0" ry="0" style="stroke:none;fill:#4B71A1;"/>
<text x="283.600000" y="182.000000" font-family="Arial" font-size="7" text-anchor="middle" fill="#FFFFFF">-</text>
<circle cx="273.600000" cy="170.000000" r="1"/>
<line x1="268.600000" y1="175.000000" x2="271.600000" y2="176.000000"  transform="rotate(0.000000,271.600000,176.000000)" style="stroke: black; stroke-width:0.25;"/>
<line x1="268.600000" y1="177.000000" x2="271.600000" y2="176.000000"  transform="rotate(0.000000,271.600000,176.000000)" style="stroke: black; stroke-width:0.25;"/>
<line x1="268.600000" y1="183.000000" x2="271.600000" y2="184.000000"  transform="rotate(0.000000,271.600000,184.000000)" style="stroke: black; stroke-width:0.25;"/>
<line x1="268.600000" y1="185.000000" x2="271.600000" y2="184.000000"  transform="rotate(0.000000,271.600000,184.000000)" style="stroke: black; stroke-width:0.25;"/>
<rect x="252.600000" y="217.000000" width="24.000000" height="24.000000" rx="0" ry="0" style="stroke:none;fill:#cccccc;"/>
<rect x="251.600000" y="216.000000" width="24.000000" height="24.000000" rx="0" ry="0" style="stroke:none;fill:#f44800;"/>
<text x="263.600000" y="230.000000" font-family="Arial" font-size="7" text-anchor="middle" fill="#FFFFFF">1</text>
<circle cx="253.600000" cy="218.000000" r="1"/>
<rect x="312.600000" y="185.000000" width="24.000000" height="24.000000" rx="0" ry="0" style="stroke:none;fill:#cccccc;"/>
<rect x="311.600000" y="184.000000" width="24.000000" height="24.000000" rx="0" ry="0" style="stroke:none;fill:#4B71A1;"/>
<text x="323.600000" y="198.000000" font-family="Arial" font-size="7" text-anchor="middle" fill="#FFFFFF">+</text>
<circle cx="313.600000" cy="186.000000" r="1"/>
<line x1="308.600000" y1="191.000000" x2="311.600000" y2="192.000000"  transform="rotate(0.000000,311.600000,192.000000)" style="stroke: black; stroke-width:0.25;"/>
<line x1="308.600000" y1="193.000000" x2="311.600000" y2="192.000000"  transform="rotate(0.000000,311.600000,192.000000)" style="stroke: black; stroke-width:0.25;"/>
<line x1="308.600000" y1="199.000000" x2="311.600000" y2="200.000000"  transform="rotate(0.000000,311.600000,200.000000)" style="stroke: black; stroke-width:0.25;"/>
<line x1="308.600000" y1="201.000000" x2="311.600000" y2="200.000000"  transform="rotate(0.000000,311.600000,200.000000)" style="stroke: black; stroke-width:0.25;"/>
<rect x="272.600000" y="249.000000" width="24.000000" height="24.000000" rx="0" ry="0" style="stroke:none;fill:#cccccc;"/>
<rect x="271.600000" y="248.000000" width="24.000000" height="24.000000" rx="0" ry="0" style="stroke:none;fill:#f44800;"/>
<text x="283.600000" y="262.000000" font-family="Arial" font-size="7" text-anchor="middle" fill="#FFFFFF">1</text>
<circle cx="273.600000" cy="250.000000" r="1"/>
<rect x="352.600000" y="201.000000" width="24.000000" height="24.000000" rx="0" ry="0" style="stroke:none;fill:#cccccc;"/>
<rect x="351.600000" y="200.000000" width="24.000000" height="24.000000" rx="0" ry="0" style="stroke:none;fill:#4B71A1;"/>
<text x="363.600000" y="214.000000" font-family="Arial" font-size="7" text-anchor="middle" fill="#FFFFFF">-</text>
<circle cx="353.600000" cy="202.000000" r="1"/>
<line x1="348.600000" y1="207.000000" x2="351.600000" y2="208.000000"  transform="rotate(0.000000,351.600000,208.000000)" style="stroke: black; stroke-width:0.25;"/>
<line x1="348.600000" y1="209.000000" x2="351.600000" y2="208.000000"  transform="rotate(0.000000,351.600000,208.000000)" style="stroke: black; stroke-width:0.25;"/>
<line x1="348.600000" y1="215.000000" x2="351.600000" y2="216.000000"  transform="rotate(0.000000,351.600000,216.000000)" style="stroke: black; stroke-width:0.25;"/>
<line x1="348.600000" y1="217.000000" x2="351.600000" y2="216.000000"  transform="rotate(0.000000,351.600000,216.000000)" style="stroke: black; stroke-width:0.25;"/>
<rect x="292.600000" y="281.000000" width="24.000000" height="24.000000" rx="0" ry="0" style="stroke:none;fill:#cccccc;"/>
<rect x="291.600000" y="280.000000" width="24.000000" height="24.000000" rx="0" ry="0" style="stroke:none;fill:#f44800;"/>
<text x="303.600000" y="294.000000" font-family="Arial" font-size="7" text-anchor="middle" fill="#FFFFFF">1</text>
<circle cx="293.600000" cy="282.000000" r="1"/>
<rect x="392.600000" y="217.000000" width="24.000000" height="24.000000" rx="0" ry="0" style="stroke:none;fill:#cccccc;"/>
<rect x="391.600000" y="216.000000" width="24.000000" height="24.000000" rx="0" ry="0" style="stroke:none;fill:#4B71A1;"/>
<text x="403.600000" y="230.000000" font-family="Arial" font-size="7" text-anchor="middle" fill="#FFFFFF">*</text>
<circle cx="393.600000" cy="218.000000" r="1"/>
<line x1="388.600000" y1="223.000000" x2="391.600000" y2="224.000000"  transform="rotate(0.000000,391.600000,224.000000)" style="stroke: black; stroke-width:0.25;"/>
<line x1="388.600000" y1="225.000000" x2="391.600000" y2="224.000000"  transform="rotate(0.000000,391.600000,224.000000)" style="stroke: black; stroke-width:0.25;"/>
<line x1="388.600000" y1="231.000000" x2="391.600000" y2="232.000000"  transform="rotate(0.000000,391.600000,232.000000)" style="stroke: black; stroke-width:0.25;"/>
<line x1="388.600000" y1="233.000000" x2="391.600000" y2="232.000000"  transform="rotate(0.000000,391.600000,232.000000)" style="stroke: black; stroke-width:0.25;"/>
<rect x="432.600000" y="169.000000" width="24.000000" height="24.000000" rx="0" ry="0" style="stroke:none;fill:#cccccc;"/>
<rect x="431.600000" y="168.000000" width="24.000000" height="24.000000" rx="0" ry="0" style="stroke:none;fill:#4B71A1;"/>
<text x="443.600000" y="182.000000" font-family="Arial" font-size="7" text-anchor="middle" fill="#FFFFFF">*</text>
<circle cx="433.600000" cy="170.000000" r="1"/>
<line x1="428.600000" y1="175.000000" x2="431.600000" y2="176.000000"  transform="rotate(0.000000,431.600000,176.000000)" style="stroke: black; stroke-width:0.25;"/>
<line x1="428.600000" y1="177.000000" x2="431.600000" y2="176.000000"  transform="rotate(0.000000,431.600000,176.000000)" style="stroke: black; stroke-width:0.25;"/>
<line x1="428.600000" y1="183.000000" x2="431.600000" y2="184.000000"  transform="rotate(0.000000,431.600000,184.000000)" style="stroke: black; stroke-width:0.25;"/>
<line x1="428.600000" y1="185.000000" x2="431.600000" y2="184.000000"  transform="rotate(0.000000,431.600000,184.000000)" style="stroke: black; stroke-width:0.25;"/>
<rect x="472.600000" y="153.000000" width="24.000000" height="24.000000" rx="0" ry="0" style="stroke:none;fill:#cccccc;"/>
<rect x="471.600000" y="152.000000" width="24.000000" height="24.000000" rx="0" ry="0" style="stroke:none;fill:#4B71A1;"/>
<text x="483.600000" y="166.000000" font-family="Arial" font-size="7" text-anchor="middle" fill="#FFFFFF">/</text>
<circle cx="473.600000" cy="154.000000" r="1"/>
<line x1="468.600000" y1="159.000000" x2="471.600000" y2="160.000000"  transform="rotate(0.000000,471.600000,160.000000)" style="stroke: black; stroke-width:0.25;"/>
<line x1="468.600000" y1="161.000000" x2="471.600000" y2="160.000000"  transform="rotate(0.000000,471.600000,160.000000)" style="stroke: black; stroke-width:0.25;"/>
<line x1="468.600000" y1="167.000000" x2="471.600000" y2="168.000000"  transform="rotate(0.000000,471.600000,168.000000)" style="stroke: black; stroke-width:0.25;"/>
<line x1="468.600000" y1="169.000000" x2="471.600000" y2="168.000000"  transform="rotate(0.000000,471.600000,168.000000)" style="stroke: black; stroke-width:0.25;"/>
<a xlink:href="gate-0x7fd80abe09a0.svg">
<rect x="504.600000" y="153.000000" width="38.700000" height="24.000000" rx="0" ry="0" style="stroke:none;fill:#cccccc;"/>
<rect x="503.600000" y="152.000000" width="38.700000" height="24.000000" rx="0" ry="0" style="stroke:none;fill:#003366;"/>
</a>
<a xlink:href="gate-0x7fd80abe09a0.svg">
<text x="522.950000" y="166.000000" font-family="Arial" font-size="7" text-anchor="middle" fill="#FFFFFF">gate(1)</text>
</a>
<circle cx="505.600000" cy="154.000000" r="1"/>
<line x1="500.600000" y1="163.000000" x2="503.600000" y2="164.000000"  transform="rotate(0.000000,503.600000,164.000000)" style="stroke: black; stroke-width:0.25;"/>
<line x1="500.600000" y1="165.000000" x2="503.600000" y2="164.000000"  transform="rotate(0.000000,503.600000,164.000000)" style="stroke: black; stroke-width:0.25;"/>
<line x1="15.000000" y1="15.000000" x2="15.000000" y2="313.000000"  style="stroke: black; stroke-linecap:round; stroke-width:0.25; stroke-dasharray:3,3;"/>
<line x1="15.000000" y1="313.000000" x2="559.300000" y2="313.000000"  style="stroke: black; stroke-linecap:round; stroke-width:0.25; stroke-dasharray:3,3;"/>
<line x1="559.300000" y1="313.000000" x2="559.300000" y2="15.000000"  style="stroke: black; stroke-linecap:round; stroke-width:0.25; stroke-dasharray:3,3;"/>
<line x1="15.000000" y1="15.000000" x2="20.000000" y2="15.000000"  style="stroke: black; stroke-linecap:round; stroke-width:0.25; stroke-dasharray:3,3;"/>
<line x1="49.025000" y1="15.000000" x2="559.300000" y2="15.000000"  style="stroke: black; stroke-linecap:round; stroke-width:0.25; stroke-dasharray:3,3;"/>
<text x="20.000000" y="17.000000" font-family="Arial" font-size="7">sawN(2)</text>
<line x1="561.300000" y1="163.000000" x2="564.300000" y2="164.000000"  transform="rotate(0.000000,564.300000,164.000000)" style="stroke: black; stroke-width:0.25;"/>
<line x1="561.300000" y1="165.000000" x2="564.300000" y2="164.000000"  transform="rotate(0.000000,564.300000,164.000000)" style="stroke: black; stroke-width:0.25;"/>
<line x1="10.000000" y1="164.000000" x2="20.000000" y2="164.000000"  style="stroke:black; stroke-linecap:round; stroke-width:0.25;"/>
<line x1="20.000000" y1="164.000000" x2="24.000000" y2="164.000000"  style="stroke:black; stroke-linecap:round; stroke-width:0.25;"/>
<line x1="24.000000" y1="164.000000" x2="28.000000" y2="164.000000"  style="stroke:black; stroke-linecap:round; stroke-width:0.25;"/>
<line x1="28.000000" y1="164.000000" x2="28.000000" y2="164.000000"  style="stroke:black; stroke-linecap:round; stroke-width:0.25;"/>
<line x1="28.000000" y1="164.000000" x2="32.000000" y2="164.000000"  style="stroke:black; stroke-linecap:round; stroke-width:0.25;"/>
<line x1="91.600000" y1="164.000000" x2="95.600000" y2="164.000000"  style="stroke:black; stroke-linecap:round; stroke-width:0.25;"/>
<line x1="95.600000" y1="164.000000" x2="95.600000" y2="164.000000"  style="stroke:black; stroke-linecap:round; stroke-width:0.25;"/>
<line x1="95.600000" y1="164.000000" x2="105.600000" y2="164.000000"  style="stroke:black; stroke-linecap:round; stroke-width:0.25;"/>
<line x1="105.600000" y1="164.000000" x2="109.600000" y2="164.000000"  style="stroke:black; stroke-linecap:round; stroke-width:0.25;"/>
<line x1="165.600000" y1="148.000000" x2="169.600000" y2="148.000000"  style="stroke:black; stroke-linecap:round; stroke-width:0.25;"/>
<line x1="165.600000" y1="180.000000" x2="169.600000" y2="180.000000"  style="stroke:black; stroke-linecap:round; stroke-width:0.25;"/>
<line x1="169.600000" y1="148.000000" x2="177.600000" y2="148.000000"  style="stroke:black; stroke-linecap:round; stroke-width:0.25;"/>
<line x1="169.600000" y1="168.000000" x2="177.600000" y2="168.000000"  style="stroke:black; stroke-linecap:round; stroke-width:0.25;"/>
<line x1="169.600000" y1="180.000000" x2="169.600000" y2="168.000000"  style="stroke:black; stroke-linecap:round; stroke-width:0.25;"/>
<line x1="169.600000" y1="180.000000" x2="169.600000" y2="180.000000"  style="stroke:black; stroke-linecap:round; stroke-width:0.25;"/>
<line x1="177.600000" y1="148.000000" x2="177.600000" y2="160.000000"  style="stroke:black; stroke-linecap:round; stroke-width:0.25;"/>
<line x1="177.600000" y1="160.000000" x2="177.600000" y2="160.000000"  style="stroke:black; stroke-linecap:round; stroke-width:0.25;"/>
<line x1="177.600000" y1="160.000000" x2="181.600000" y2="160.000000"  style="stroke:black; stroke-linecap:round; stroke-width:0.25;"/>
<line x1="177.600000" y1="168.000000" x2="181.600000" y2="168.000000"  style="stroke:black; stroke-linecap:round; stroke-width:0.25;"/>
<line x1="205.600000" y1="164.000000" x2="209.600000" y2="164.000000"  style="stroke:black; stroke-linecap:round; stroke-width:0.25;"/>
<line x1="209.600000" y1="164.000000" x2="219.600000" y2="164.000000"  style="stroke:black; stroke-linecap:round; stroke-width:0.25;"/>
<line x1="219.600000" y1="36.000000" x2="227.600000" y2="36.000000"  style="stroke:black; stroke-linecap:round; stroke-width:0.25;"/>
<line x1="219.600000" y1="164.000000" x2="219.600000" y2="36.000000"  style="stroke:black; stroke-linecap:round; stroke-width:0.25;"/>
<line x1="219.600000" y1="164.000000" x2="219.600000" y2="164.000000"  style="stroke:black; stroke-linecap:round; stroke-width:0.25;"/>
<line x1="227.600000" y1="36.000000" x2="320.250000" y2="36.000000"  style="stroke:black; stroke-linecap:round; stroke-width:0.25;"/>
<line x1="255.600000" y1="164.000000" x2="259.600000" y2="164.000000"  style="stroke:black; stroke-linecap:round; stroke-width:0.25;"/>
<line x1="255.600000" y1="196.000000" x2="259.600000" y2="196.000000"  style="stroke:black; stroke-linecap:round; stroke-width:0.25;"/>
<line x1="259.600000" y1="164.000000" x2="267.600000" y2="164.000000"  style="stroke:black; stroke-linecap:round; stroke-width:0.25;"/>
<line x1="259.600000" y1="184.000000" x2="267.600000" y2="184.000000"  style="stroke:black; stroke-linecap:round; stroke-width:0.25;"/>
<line x1="259.600000" y1="196.000000" x2="259.600000" y2="184.000000"  style="stroke:black; stroke-linecap:round; stroke-width:0.25;"/>
<line x1="259.600000" y1="196.000000" x2="259.600000" y2="196.000000"  style="stroke:black; stroke-linecap:round; stroke-width:0.25;"/>
<line x1="267.600000" y1="164.000000" x2="267.600000" y2="176.000000"  style="stroke:black; stroke-linecap:round; stroke-width:0.25;"/>
<line x1="267.600000" y1="176.000000" x2="267.600000" y2="176.000000"  style="stroke:black; stroke-linecap:round; stroke-width:0.25;"/>
<line x1="267.600000" y1="176.000000" x2="271.600000" y2="176.000000"  style="stroke:black; stroke-linecap:round; stroke-width:0.25;"/>
<line x1="267.600000" y1="184.000000" x2="271.600000" y2="184.000000"  style="stroke:black; stroke-linecap:round; stroke-width:0.25;"/>
<line x1="275.600000" y1="228.000000" x2="279.600000" y2="228.000000"  style="stroke:black; stroke-linecap:round; stroke-width:0.25;"/>
<line x1="279.600000" y1="228.000000" x2="299.600000" y2="228.000000"  style="stroke:black; stroke-linecap:round; stroke-width:0.25;"/>
<line x1="295.600000" y1="68.000000" x2="299.600000" y2="68.000000"  style="stroke:black; stroke-linecap:round; stroke-width:0.25;"/>
<line x1="295.600000" y1="100.000000" x2="299.600000" y2="100.000000"  style="stroke:black; stroke-linecap:round; stroke-width:0.25;"/>
<line x1="295.600000" y1="180.000000" x2="299.600000" y2="180.000000"  style="stroke:black; stroke-linecap:round; stroke-width:0.25;"/>
<line x1="295.600000" y1="260.000000" x2="299.600000" y2="260.000000"  style="stroke:black; stroke-linecap:round; stroke-width:0.25;"/>
<line x1="299.600000" y1="68.000000" x2="307.600000" y2="68.000000"  style="stroke:black; stroke-linecap:round; stroke-width:0.25;"/>
<line x1="299.600000" y1="88.000000" x2="307.600000" y2="88.000000"  style="stroke:black; stroke-linecap:round; stroke-width:0.25;"/>
<line x1="299.600000" y1="100.000000" x2="299.600000" y2="88.000000"  style="stroke:black; stroke-linecap:round; stroke-width:0.25;"/>
<line x1="299.600000" y1="100.000000" x2="299.600000" y2="100.000000"  style="stroke:black; stroke-linecap:round; stroke-width:0.25;"/>
<line x1="299.600000" y1="180.000000" x2="307.600000" y2="180.000000"  style="stroke:black; stroke-linecap:round; stroke-width:0.25;"/>
<line x1="299.600000" y1="200.000000" x2="307.600000" y2="200.000000"  style="stroke:black; stroke-linecap:round; stroke-width:0.25;"/>
<line x1="299.600000" y1="228.000000" x2="299.600000" y2="200.000000"  style="stroke:black; stroke-linecap:round; stroke-width:0.25;"/>
<line x1="299.600000" y1="228.000000" x2="299.600000" y2="228.000000"  style="stroke:black; stroke-linecap:round; stroke-width:0.25;"/>
<line x1="299.600000" y1="260.000000" x2="339.600000" y2="260.000000"  style="stroke:black; stroke-linecap:round; stroke-width:0.25;"/>
<line x1="307.600000" y1="68.000000" x2="307.600000" y2="80.000000"  style="stroke:black; stroke-linecap:round; stroke-width:0.25;"/>
<line x1="307.600000" y1="80.000000" x2="307.600000" y2="80.000000"  style="stroke:black; stroke-linecap:round; stroke-width:0.25;"/>
<line x1="307.600000" y1="80.000000" x2="311.600000" y2="80.000000"  style="stroke:black; stroke-linecap:round; stroke-width:0.25;"/>
<line x1="307.600000" y1="88.000000" x2="311.600000" y2="88.000000"  style="stroke:black; stroke-linecap:round; stroke-width:0.25;"/>
<line x1="307.600000" y1="180.000000" x2="307.600000" y2="192.000000"  style="stroke:black; stroke-linecap:round; stroke-width:0.25;"/>
<line x1="307.600000" y1="192.000000" x2="307.600000" y2="192.000000"  style="stroke:black; stroke-linecap:round; stroke-width:0.25;"/>
<line x1="307.600000" y1="192.000000" x2="311.600000" y2="192.000000"  style="stroke:black; stroke-linecap:round; stroke-width:0.25;"/>
<line x1="307.600000" y1="200.000000" x2="311.600000" y2="200.000000"  style="stroke:black; stroke-linecap:round; stroke-width:0.25;"/>
<line x1="315.600000" y1="132.000000" x2="319.600000" y2="132.000000"  style="stroke:black; stroke-linecap:round; stroke-width:0.25;"/>
<line x1="315.600000" y1="292.000000" x2="319.600000" y2="292.000000"  style="stroke:black; stroke-linecap:round; stroke-width:0.25;"/>
<line x1="319.600000" y1="132.000000" x2="339.600000" y2="132.000000"  style="stroke:black; stroke-linecap:round; stroke-width:0.25;"/>
<line x1="319.600000" y1="292.000000" x2="379.600000" y2="292.000000"  style="stroke:black; stroke-linecap:round; stroke-width:0.25;"/>
<line x1="320.250000" y1="36.000000" x2="324.250000" y2="36.000000"  style="stroke:black; stroke-linecap:round; stroke-width:0.25;"/>
<line x1="335.600000" y1="84.000000" x2="339.600000" y2="84.000000"  style="stroke:black; stroke-linecap:round; stroke-width:0.25;"/>
<line x1="335.600000" y1="196.000000" x2="339.600000" y2="196.000000"  style="stroke:black; stroke-linecap:round; stroke-width:0.25;"/>
<line x1="339.600000" y1="84.000000" x2="347.600000" y2="84.000000"  style="stroke:black; stroke-linecap:round; stroke-width:0.25;"/>
<line x1="339.600000" y1="104.000000" x2="347.600000" y2="104.000000"  style="stroke:black; stroke-linecap:round; stroke-width:0.25;"/>
<line x1="339.600000" y1="132.000000" x2="339.600000" y2="104.000000"  style="stroke:black; stroke-linecap:round; stroke-width:0.25;"/>
<line x1="339.600000" y1="132.000000" x2="339.600000" y2="132.000000"  style="stroke:black; stroke-linecap:round; stroke-width:0.25;"/>
<line x1="339.600000" y1="196.000000" x2="347.600000" y2="196.000000"  style="stroke:black; stroke-linecap:round; stroke-width:0.25;"/>
<line x1="339.600000" y1="216.000000" x2="347.600000" y2="216.000000"  style="stroke:black; stroke-linecap:round; stroke-width:0.25;"/>
<line x1="339.600000" y1="260.000000" x2="339.600000" y2="216.000000"  style="stroke:black; stroke-linecap:round; stroke-width:0.25;"/>
<line x1="339.600000" y1="260.000000" x2="339.600000" y2="260.000000"  style="stroke:black; stroke-linecap:round; stroke-width:0.25;"/>
<line x1="347.600000" y1="84.000000" x2="347.600000" y2="96.000000"  style="stroke:black; stroke-linecap:round; stroke-width:0.25;"/>
<line x1="347.600000" y1="96.000000" x2="347.600000" y2="96.000000"  style="stroke:black; stroke-linecap:round; stroke-width:0.25;"/>
<line x1="347.600000" y1="96.000000" x2="351.600000" y2="96.000000"  style="stroke:black; stroke-linecap:round; stroke-width:0.25;"/>
<line x1="347.600000" y1="104.000000" x2="351.600000" y2="104.000000"  style="stroke:black; stroke-linecap:round; stroke-width:0.25;"/>
<line x1="347.600000" y1="196.000000" x2="347.600000" y2="208.000000"  style="stroke:black; stroke-linecap:round; stroke-width:0.25;"/>
<line x1="347.600000" y1="208.000000" x2="347.600000" y2="208.000000"  style="stroke:black; stroke-linecap:round; stroke-width:0.25;"/>
<line x1="347.600000" y1="208.000000" x2="351.600000" y2="208.000000"  style="stroke:black; stroke-linecap:round; stroke-width:0.25;"/>
<line x1="347.600000" y1="216.000000" x2="351.600000" y2="216.000000"  style="stroke:black; stroke-linecap:round; stroke-width:0.25;"/>
<line x1="362.950000" y1="36.000000" x2="366.950000" y2="36.000000"  style="stroke:black; stroke-linecap:round; stroke-width:0.25;"/>
<line x1="366.950000" y1="36.000000" x2="459.600000" y2="36.000000"  style="stroke:black; stroke-linecap:round; stroke-width:0.25;"/>
<line x1="375.600000" y1="100.000000" x2="379.600000" y2="100.000000"  style="stroke:black; stroke-linecap:round; stroke-width:0.25;"/>
<line x1="375.600000" y1="212.000000" x2="379.600000" y2="212.000000"  style="stroke:black; stroke-linecap:round; stroke-width:0.25;"/>
<line x1="379.600000" y1="100.000000" x2="419.600000" y2="100.000000"  style="stroke:black; stroke-linecap:round; stroke-width:0.25;"/>
<line x1="379.600000" y1="212.000000" x2="387.600000" y2="212.000000"  style="stroke:black; stroke-linecap:round; stroke-width:0.25;"/>
<line x1="379.600000" y1="232.000000" x2="387.600000" y2="232.000000"  style="stroke:black; stroke-linecap:round; stroke-width:0.25;"/>
<line x1="379.600000" y1="292.000000" x2="379.600000" y2="232.000000"  style="stroke:black; stroke-linecap:round; stroke-width:0.25;"/>
<line x1="379.600000" y1="292.000000" x2="379.600000" y2="292.000000"  style="stroke:black; stroke-linecap:round; stroke-width:0.25;"/>
<line x1="387.600000" y1="212.000000" x2="387.600000" y2="224.000000"  style="stroke:black; stroke-linecap:round; stroke-width:0.25;"/>
<line x1="387.600000" y1="224.000000" x2="387.600000" y2="224.000000"  style="stroke:black; stroke-linecap:round; stroke-width:0.25;"/>
<line x1="387.600000" y1="224.000000" x2="391.600000" y2="224.000000"  style="stroke:black; stroke-linecap:round; stroke-width:0.25;"/>
<line x1="387.600000" y1="232.000000" x2="391.600000" y2="232.000000"  style="stroke:black; stroke-linecap:round; stroke-width:0.25;"/>
<line x1="415.600000" y1="228.000000" x2="419.600000" y2="228.000000"  style="stroke:black; stroke-linecap:round; stroke-width:0.25;"/>
<line x1="419.600000" y1="100.000000" x2="427.600000" y2="100.000000"  style="stroke:black; stroke-linecap:round; stroke-width:0.25;"/>
<line x1="419.600000" y1="184.000000" x2="427.600000" y2="184.000000"  style="stroke:black; stroke-linecap:round; stroke-width:0.25;"/>
<line x1="419.600000" y1="228.000000" x2="419.600000" y2="184.000000"  style="stroke:black; stroke-linecap:round; stroke-width:0.25;"/>
<line x1="419.600000" y1="228.000000" x2="419.600000" y2="228.000000"  style="stroke:black; stroke-linecap:round; stroke-width:0.25;"/>
<line x1="427.600000" y1="100.000000" x2="427.600000" y2="176.000000"  style="stroke:black; stroke-linecap:round; stroke-width:0.25;"/>
<line x1="427.600000" y1="176.000000" x2="427.600000" y2="176.000000"  style="stroke:black; stroke-linecap:round; stroke-width:0.25;"/>
<line x1="427.600000" y1="176.000000" x2="431.600000" y2="176.000000"  style="stroke:black; stroke-linecap:round; stroke-width:0.25;"/>
<line x1="427.600000" y1="184.000000" x2="431.600000" y2="184.000000"  style="stroke:black; stroke-linecap:round; stroke-width:0.25;"/>
<line x1="455.600000" y1="180.000000" x2="459.600000" y2="180.000000"  style="stroke:black; stroke-linecap:round; stroke-width:0.25;"/>
<line x1="459.600000" y1="36.000000" x2="467.600000" y2="36.000000"  style="stroke:black; stroke-linecap:round; stroke-width:0.25;"/>
<line x1="459.600000" y1="168.000000" x2="467.600000" y2="168.000000"  style="stroke:black; stroke-linecap:round; stroke-width:0.25;"/>
<line x1="459.600000" y1="180.000000" x2="459.600000" y2="168.000000"  style="stroke:black; stroke-linecap:round; stroke-width:0.25;"/>
<line x1="459.600000" y1="180.000000" x2="459.600000" y2="180.000000"  style="stroke:black; stroke-linecap:round; stroke-width:0.25;"/>
<line x1="467.600000" y1="36.000000" x2="467.600000" y2="160.000000"  style="stroke:black; stroke-linecap:round; stroke-width:0.25;"/>
<line x1="467.600000" y1="160.000000" x2="467.600000" y2="160.000000"  style="stroke:black; stroke-linecap:round; stroke-width:0.25;"/>
<line x1="467.600000" y1="160.000000" x2="471.600000" y2="160.000000"  style="stroke:black; stroke-linecap:round; stroke-width:0.25;"/>
<line x1="467.600000" y1="168.000000" x2="471.600000" y2="168.000000"  style="stroke:black; stroke-linecap:round; stroke-width:0.25;"/>
<line x1="495.600000" y1="164.000000" x2="499.600000" y2="164.000000"  style="stroke:black; stroke-linecap:round; stroke-width:0.25;"/>
<line x1="499.600000" y1="164.000000" x2="499.600000" y2="164.000000"  style="stroke:black; stroke-linecap:round; stroke-width:0.25;"/>
<line x1="499.600000" y1="164.000000" x2="503.600000" y2="164.000000"  style="stroke:black; stroke-linecap:round; stroke-width:0.25;"/>
<line x1="542.300000" y1="164.000000" x2="546.300000" y2="164.000000"  style="stroke:black; stroke-linecap:round; stroke-width:0.25;"/>
<line x1="546.300000" y1="164.000000" x2="550.300000" y2="164.000000"  style="stroke:black; stroke-linecap:round; stroke-width:0.25;"/>
<line x1="546.300000" y1="164.000000" x2="546.300000" y2="164.000000"  style="stroke:black; stroke-linecap:round; stroke-width:0.25;"/>
<line x1="550.300000" y1="164.000000" x2="554.300000" y2="164.000000"  style="stroke:black; stroke-linecap:round; stroke-width:0.25;"/>
<line x1="554.300000" y1="164.000000" x2="564.300000" y2="164.000000"  style="stroke:black; stroke-linecap:round; stroke-width:0.25;"/>
</svg>
