<?xml version="1.0"?>
<svg xmlns="http://www.w3.org/2000/svg" xmlns:xlink="http://www.w3.org/1999/xlink" viewBox="0 0 536.100000 328.000000" width="268.050000mm" height="164.000000mm" version="1.1">
<a xlink:href="squareN-0x7fd80b6c4de0.svg">
<rect x="1.000000" y="1.000000" width="535.100000" height="327.000000" rx="0" ry="0" style="stroke:none;fill:#cccccc;"/>
<rect x="0.000000" y="0.000000" width="535.100000" height="327.000000" rx="0" ry="0" style="stroke:none;fill:#ffffff;"/>
</a>
<text x="10.000000" y="7.000000" font-family="Arial" font-size="7"></text>
<a xlink:href="saw1l-0x7fd80b6cbe30.svg">
<rect x="25.000000" y="153.000000" width="25.800000" height="24.000000" rx="0" ry="0" style="stroke:none;fill:#cccccc;"/>
<rect x="24.000000" y="152.000000" width="25.800000" height="24.000000" rx="0" ry="0" style="stroke:none;fill:#003366;"/>
</a>
<a xlink:href="saw1l-0x7fd80b6cbe30.svg">
<text x="36.900000" y="166.000000" font-family="Arial" font-size="7" text-anchor="middle" fill="#FFFFFF">saw1l</text>
</a>
<circle cx="26.000000" cy="154.000000" r="1"/>
<rect x="68.800000" y="153.000000" width="25.800000" height="24.000000" rx="0" ry="0" style="stroke:none;fill:#cccccc;"/>
<rect x="67.800000" y="152.000000" width="25.800000" height="24.000000" rx="0" ry="0" style="stroke:none;fill:#47945E;"/>
<text x="80.700000" y="166.000000" font-family="Arial" font-size="7" text-anchor="middle" fill="#FFFFFF">PM67</text>
<circle cx="69.800000" cy="154.000000" r="1"/>
<line x1="64.800000" y1="163.000000" x2="67.800000" y2="164.000000"  transform="rotate(0.000000,67.800000,164.000000)" style="stroke: black; stroke-width:0.25;"/>
<line x1="64.800000" y1="165.000000" x2="67.800000" y2="164.000000"  transform="rotate(0.000000,67.800000,164.000000)" style="stroke: black; stroke-width:0.25;"/>
<rect x="102.600000" y="137.000000" width="25.800000" height="24.000000" rx="0" ry="0" style="stroke:none;fill:#cccccc;"/>
<rect x="101.600000" y="136.000000" width="25.800000" height="24.000000" rx="0" ry="0" style="stroke:none;fill:#47945E;"/>
<text x="114.500000" y="150.000000" font-family="Arial" font-size="7" text-anchor="middle" fill="#FFFFFF">PM67</text>
<circle cx="103.600000" cy="138.000000" r="1"/>
<rect x="102.600000" y="169.000000" width="25.800000" height="24.000000" rx="0" ry="0" style="stroke:none;fill:#cccccc;"/>
<rect x="101.600000" y="168.000000" width="25.800000" height="24.000000" rx="0" ry="0" style="stroke:none;fill:#47945E;"/>
<text x="114.500000" y="182.000000" font-family="Arial" font-size="7" text-anchor="middle" fill="#FFFFFF">PM67</text>
<circle cx="103.600000" cy="170.000000" r="1"/>
<rect x="144.400000" y="153.000000" width="24.000000" height="24.000000" rx="0" ry="0" style="stroke:none;fill:#cccccc;"/>
<rect x="143.400000" y="152.000000" width="24.000000" height="24.000000" rx="0" ry="0" style="stroke:none;fill:#4B71A1;"/>
<text x="155.400000" y="166.000000" font-family="Arial" font-size="7" text-anchor="middle" fill="#FFFFFF">*</text>
<circle cx="145.400000" cy="154.000000" r="1"/>
<line x1="140.400000" y1="159.000000" x2="143.400000" y2="160.000000"  transform="rotate(0.000000,143.400000,160.000000)" style="stroke: black; stroke-width:0.25;"/>
<line x1="140.400000" y1="161.000000" x2="143.400000" y2="160.000000"  transform="rotate(0.000000,143.400000,160.000000)" style="stroke: black; stroke-width:0.25;"/>
<line x1="140.400000" y1="167.000000" x2="143.400000" y2="168.000000"  transform="rotate(0.000000,143.400000,168.000000)" style="stroke: black; stroke-width:0.25;"/>
<line x1="140.400000" y1="169.000000" x2="143.400000" y2="168.000000"  transform="rotate(0.000000,143.400000,168.000000)" style="stroke: black; stroke-width:0.25;"/>
<line x1="58.800000" y1="127.000000" x2="58.800000" y2="201.000000"  style="stroke: black; stroke-linecap:round; stroke-width:0.25; stroke-dasharray:3,3;"/>
<line x1="58.800000" y1="201.000000" x2="176.400000" y2="201.000000"  style="stroke: black; stroke-linecap:round; stroke-width:0.25; stroke-dasharray:3,3;"/>
<line x1="176.400000" y1="201.000000" x2="176.400000" y2="127.000000"  style="stroke: black; stroke-linecap:round; stroke-width:0.25; stroke-dasharray:3,3;"/>
<line x1="58.800000" y1="127.000000" x2="63.800000" y2="127.000000"  style="stroke: black; stroke-linecap:round; stroke-width:0.25; stroke-dasharray:3,3;"/>
<line x1="105.725000" y1="127.000000" x2="176.400000" y2="127.000000"  style="stroke: black; stroke-linecap:round; stroke-width:0.25; stroke-dasharray:3,3;"/>
<text x="63.800000" y="129.000000" font-family="Arial" font-size="7">Abstraction</text>
<a xlink:href="diff-0x7fd80b6c7a10.svg">
<rect x="287.050000" y="25.000000" width="38.700000" height="24.000000" rx="0" ry="0" style="stroke:none;fill:#cccccc;"/>
<rect x="286.050000" y="24.000000" width="38.700000" height="24.000000" rx="0" ry="0" style="stroke:none;fill:#003366;"/>
</a>
<a xlink:href="diff-0x7fd80b6c7a10.svg">
<text x="305.400000" y="38.000000" font-family="Arial" font-size="7" text-anchor="middle" fill="#FFFFFF">diff(1)</text>
</a>
<circle cx="288.050000" cy="26.000000" r="1"/>
<line x1="283.050000" y1="35.000000" x2="286.050000" y2="36.000000"  transform="rotate(0.000000,286.050000,36.000000)" style="stroke: black; stroke-width:0.25;"/>
<line x1="283.050000" y1="37.000000" x2="286.050000" y2="36.000000"  transform="rotate(0.000000,286.050000,36.000000)" style="stroke: black; stroke-width:0.25;"/>
<a xlink:href="Nc-0x7fd80ab3e700.svg">
<rect x="234.400000" y="57.000000" width="24.000000" height="24.000000" rx="0" ry="0" style="stroke:none;fill:#cccccc;"/>
<rect x="233.400000" y="56.000000" width="24.000000" height="24.000000" rx="0" ry="0" style="stroke:none;fill:#003366;"/>
</a>
<a xlink:href="Nc-0x7fd80ab3e700.svg">
<text x="245.400000" y="70.000000" font-family="Arial" font-size="7" text-anchor="middle" fill="#FFFFFF">Nc</text>
</a>
<circle cx="235.400000" cy="58.000000" r="1"/>
<rect x="234.400000" y="89.000000" width="24.000000" height="24.000000" rx="0" ry="0" style="stroke:none;fill:#cccccc;"/>
<rect x="233.400000" y="88.000000" width="24.000000" height="24.000000" rx="0" ry="0" style="stroke:none;fill:#f44800;"/>
<text x="245.400000" y="102.000000" font-family="Arial" font-size="7" text-anchor="middle" fill="#FFFFFF">1</text>
<circle cx="235.400000" cy="90.000000" r="1"/>
<rect x="274.400000" y="73.000000" width="24.000000" height="24.000000" rx="0" ry="0" style="stroke:none;fill:#cccccc;"/>
<rect x="273.400000" y="72.000000" width="24.000000" height="24.000000" rx="0" ry="0" style="stroke:none;fill:#4B71A1;"/>
<text x="285.400000" y="86.000000" font-family="Arial" font-size="7" text-anchor="middle" fill="#FFFFFF">-</text>
<circle cx="275.400000" cy="74.000000" r="1"/>
<line x1="270.400000" y1="79.000000" x2="273.400000" y2="80.000000"  transform="rotate(0.000000,273.400000,80.000000)" style="stroke: black; stroke-width:0.25;"/>
<line x1="270.400000" y1="81.000000" x2="273.400000" y2="80.000000"  transform="rotate(0.000000,273.400000,80.000000)" style="stroke: black; stroke-width:0.25;"/>
<line x1="270.400000" y1="87.000000" x2="273.400000" y2="88.000000"  transform="rotate(0.000000,273.400000,88.000000)" style="stroke: black; stroke-width:0.25;"/>
<line x1="270.400000" y1="89.000000" x2="273.400000" y2="88.000000"  transform="rotate(0.000000,273.400000,88.000000)" style="stroke: black; stroke-width:0.25;"/>
<rect x="254.400000" y="121.000000" width="24.000000" height="24.000000" rx="0" ry="0" style="stroke:none;fill:#cccccc;"/>
<rect x="253.400000" y="120.000000" width="24.000000" height="24.000000" rx="0" ry="0" style="stroke:none;fill:#f44800;"/>
<text x="265.400000" y="134.000000" font-family="Arial" font-size="7" text-anchor="middle" fill="#FFFFFF">1</text>
<circle cx="255.400000" cy="122.000000" r="1"/>
<rect x="314.400000" y="89.000000" width="24.000000" height="24.000000" rx="0" ry="0" style="stroke:none;fill:#cccccc;"/>
<rect x="313.400000" y="88.000000" width="24.000000" height="24.000000" rx="0" ry="0" style="stroke:none;fill:#4B71A1;"/>
<text x="325.400000" y="102.000000" font-family="Arial" font-size="7" text-anchor="middle" fill="#FFFFFF">+</text>
<circle cx="315.400000" cy="90.000000" r="1"/>
<line x1="310.400000" y1="95.000000" x2="313.400000" y2="96.000000"  transform="rotate(0.000000,313.400000,96.000000)" style="stroke: black; stroke-width:0.25;"/>
<line x1="310.400000" y1="97.000000" x2="313.400000" y2="96.000000"  transform="rotate(0.000000,313.400000,96.000000)" style="stroke: black; stroke-width:0.25;"/>
<line x1="310.400000" y1="103.000000" x2="313.400000" y2="104.000000"  transform="rotate(0.000000,313.400000,104.000000)" style="stroke: black; stroke-width:0.25;"/>
<line x1="310.400000" y1="105.000000" x2="313.400000" y2="104.000000"  transform="rotate(0.000000,313.400000,104.000000)" style="stroke: black; stroke-width:0.25;"/>
<a xlink:href="Nc-0x7fd80ab3e700.svg">
<rect x="194.400000" y="153.000000" width="24.000000" height="24.000000" rx="0" ry="0" style="stroke:none;fill:#cccccc;"/>
<rect x="193.400000" y="152.000000" width="24.000000" height="24.000000" rx="0" ry="0" style="stroke:none;fill:#003366;"/>
</a>
<a xlink:href="Nc-0x7fd80ab3e700.svg">
<text x="205.400000" y="166.000000" font-family="Arial" font-size="7" text-anchor="middle" fill="#FFFFFF">Nc</text>
</a>
<circle cx="195.400000" cy="154.000000" r="1"/>
<rect x="194.400000" y="185.000000" width="24.000000" height="24.000000" rx="0" ry="0" style="stroke:none;fill:#cccccc;"/>
<rect x="193.400000" y="184.000000" width="24.000000" height="24.000000" rx="0" ry="0" style="stroke:none;fill:#f44800;"/>
<text x="205.400000" y="198.000000" font-family="Arial" font-size="7" text-anchor="middle" fill="#FFFFFF">1</text>
<circle cx="195.400000" cy="186.000000" r="1"/>
<rect x="234.400000" y="169.000000" width="24.000000" height="24.000000" rx="0" ry="0" style="stroke:none;fill:#cccccc;"/>
<rect x="233.400000" y="168.000000" width="24.000000" height="24.000000" rx="0" ry="0" style="stroke:none;fill:#4B71A1;"/>
<text x="245.400000" y="182.000000" font-family="Arial" font-size="7" text-anchor="middle" fill="#FFFFFF">-</text>
<circle cx="235.400000" cy="170.000000" r="1"/>
<line x1="230.400000" y1="175.000000" x2="233.400000" y2="176.000000"  transform="rotate(0.000000,233.400000,176.000000)" style="stroke: black; stroke-width:0.25;"/>
<line x1="230.400000" y1="177.000000" x2="233.400000" y2="176.000000"  transform="rotate(0.000000,233.400000,176.000000)" style="stroke: black; stroke-width:0.25;"/>
<line x1="230.400000" y1="183.000000" x2="233.400000" y2="184.000000"  transform="rotate(0.000000,233.400000,184.000000)" style="stroke: black; stroke-width:0.25;"/>
<line x1="230.400000" y1="185.000000" x2="233.400000" y2="184.000000"  transform="rotate(0.000000,233.400000,184.000000)" style="stroke: black; stroke-width:0.25;"/>
<rect x="214.400000" y="217.000000" width="24.000000" height="24.000000" rx="0" ry="0" style="stroke:none;fill:#cccccc;"/>
<rect x="213.400000" y="216.000000" width="24.000000" height="24.000000" rx="0" ry="0" style="stroke:none;fill:#f44800;"/>
<text x="225.400000" y="230.000000" font-family="Arial" font-size="7" text-anchor="middle" fill="#FFFFFF">1</text>
<circle cx="215.400000" cy="218.000000" r="1"/>
<rect x="274.400000" y="185.000000" width="24.000000" height="24.000000" rx="0" ry="0" style="stroke:none;fill:#cccccc;"/>
<rect x="273.400000" y="184.000000" width="24.000000" height="24.000000" rx="0" ry="0" style="stroke:none;fill:#4B71A1;"/>
<text x="285.400000" y="198.000000" font-family="Arial" font-size="7" text-anchor="middle" fill="#FFFFFF">+</text>
<circle cx="275.400000" cy="186.000000" r="1"/>
<line x1="270.400000" y1="191.000000" x2="273.400000" y2="192.000000"  transform="rotate(0.000000,273.400000,192.000000)" style="stroke: black; stroke-width:0.25;"/>
<line x1="270.400000" y1="193.000000" x2="273.400000" y2="192.000000"  transform="rotate(0.000000,273.400000,192.000000)" style="stroke: black; stroke-width:0.25;"/>
<line x1="270.400000" y1="199.000000" x2="273.400000" y2="200.000000"  transform="rotate(0.000000,273.400000,200.000000)" style="stroke: black; stroke-width:0.25;"/>
<line x1="270.400000" y1="201.000000" x2="273.400000" y2="200.000000"  transform="rotate(0.000000,273.400000,200.000000)" style="stroke: black; stroke-width:0.25;"/>
<rect x="234.400000" y="249.000000" width="24.000000" height="24.000000" rx="0" ry="0" style="stroke:none;fill:#cccccc;"/>
<rect x="233.400000" y="248.000000" width="24.000000" height="24.000000" rx="0" ry="0" style="stroke:none;fill:#f44800;"/>
<text x="245.400000" y="262.000000" font-family="Arial" font-size="7" text-anchor="middle" fill="#FFFFFF">1</text>
<circle cx="235.400000" cy="250.000000" r="1"/>
<rect x="314.400000" y="201.000000" width="24.000000" height="24.000000" rx="0" ry="0" style="stroke:none;fill:#cccccc;"/>
<rect x="313.400000" y="200.000000" width="24.000000" height="24.000000" rx="0" ry="0" style="stroke:none;fill:#4B71A1;"/>
<text x="325.400000" y="214.000000" font-family="Arial" font-size="7" text-anchor="middle" fill="#FFFFFF">-</text>
<circle cx="315.400000" cy="202.000000" r="1"/>
<line x1="310.400000" y1="207.000000" x2="313.400000" y2="208.000000"  transform="rotate(0.000000,313.400000,208.000000)" style="stroke: black; stroke-width:0.25;"/>
<line x1="310.400000" y1="209.000000" x2="313.400000" y2="208.000000"  transform="rotate(0.000000,313.400000,208.000000)" style="stroke: black; stroke-width:0.25;"/>
<line x1="310.400000" y1="215.000000" x2="313.400000" y2="216.000000"  transform="rotate(0.000000,313.400000,216.000000)" style="stroke: black; stroke-width:0.25;"/>
<line x1="310.400000" y1="217.000000" x2="313.400000" y2="216.000000"  transform="rotate(0.000000,313.400000,216.000000)" style="stroke: black; stroke-width:0.25;"/>
<rect x="254.400000" y="281.000000" width="24.000000" height="24.000000" rx="0" ry="0" style="stroke:none;fill:#cccccc;"/>
<rect x="253.400000" y="280.000000" width="24.000000" height="24.000000" rx="0" ry="0" style="stroke:none;fill:#f44800;"/>
<text x="265.400000" y="294.000000" font-family="Arial" font-size="7" text-anchor="middle" fill="#FFFFFF">1</text>
<circle cx="255.400000" cy="282.000000" r="1"/>
<rect x="354.400000" y="217.000000" width="24.000000" height="24.000000" rx="0" ry="0" style="stroke:none;fill:#cccccc;"/>
<rect x="353.400000" y="216.000000" width="24.000000" height="24.000000" rx="0" ry="0" style="stroke:none;fill:#4B71A1;"/>
<text x="365.400000" y="230.000000" font-family="Arial" font-size="7" text-anchor="middle" fill="#FFFFFF">*</text>
<circle cx="355.400000" cy="218.000000" r="1"/>
<line x1="350.400000" y1="223.000000" x2="353.400000" y2="224.000000"  transform="rotate(0.000000,353.400000,224.000000)" style="stroke: black; stroke-width:0.25;"/>
<line x1="350.400000" y1="225.000000" x2="353.400000" y2="224.000000"  transform="rotate(0.000000,353.400000,224.000000)" style="stroke: black; stroke-width:0.25;"/>
<line x1="350.400000" y1="231.000000" x2="353.400000" y2="232.000000"  transform="rotate(0.000000,353.400000,232.000000)" style="stroke: black; stroke-width:0.25;"/>
<line x1="350.400000" y1="233.000000" x2="353.400000" y2="232.000000"  transform="rotate(0.000000,353.400000,232.000000)" style="stroke: black; stroke-width:0.25;"/>
<rect x="394.400000" y="169.000000" width="24.000000" height="24.000000" rx="0" ry="0" style="stroke:none;fill:#cccccc;"/>
<rect x="393.400000" y="168.000000" width="24.000000" height="24.000000" rx="0" ry="0" style="stroke:none;fill:#4B71A1;"/>
<text x="405.400000" y="182.000000" font-family="Arial" font-size="7" text-anchor="middle" fill="#FFFFFF">*</text>
<circle cx="395.400000" cy="170.000000" r="1"/>
<line x1="390.400000" y1="175.000000" x2="393.400000" y2="176.000000"  transform="rotate(0.000000,393.400000,176.000000)" style="stroke: black; stroke-width:0.25;"/>
<line x1="390.400000" y1="177.000000" x2="393.400000" y2="176.000000"  transform="rotate(0.000000,393.400000,176.000000)" style="stroke: black; stroke-width:0.25;"/>
<line x1="390.400000" y1="183.000000" x2="393.400000" y2="184.000000"  transform="rotate(0.000000,393.400000,184.000000)" style="stroke: black; stroke-width:0.25;"/>
<line x1="390.400000" y1="185.000000" x2="393.400000" y2="184.000000"  transform="rotate(0.000000,393.400000,184.000000)" style="stroke: black; stroke-width:0.25;"/>
<rect x="434.400000" y="153.000000" width="24.000000" height="24.000000" rx="0" ry="0" style="stroke:none;fill:#cccccc;"/>
<rect x="433.400000" y="152.000000" width="24.000000" height="24.000000" rx="0" ry="0" style="stroke:none;fill:#4B71A1;"/>
<text x="445.400000" y="166.000000" font-family="Arial" font-size="7" text-anchor="middle" fill="#FFFFFF">/</text>
<circle cx="435.400000" cy="154.000000" r="1"/>
<line x1="430.400000" y1="159.000000" x2="433.400000" y2="160.000000"  transform="rotate(0.000000,433.400000,160.000000)" style="stroke: black; stroke-width:0.25;"/>
<line x1="430.400000" y1="161.000000" x2="433.400000" y2="160.000000"  transform="rotate(0.000000,433.400000,160.000000)" style="stroke: black; stroke-width:0.25;"/>
<line x1="430.400000" y1="167.000000" x2="433.400000" y2="168.000000"  transform="rotate(0.000000,433.400000,168.000000)" style="stroke: black; stroke-width:0.25;"/>
<line x1="430.400000" y1="169.000000" x2="433.400000" y2="168.000000"  transform="rotate(0.000000,433.400000,168.000000)" style="stroke: black; stroke-width:0.25;"/>
<a xlink:href="gate-0x7fd80abe09a0.svg">
<rect x="466.400000" y="153.000000" width="38.700000" height="24.000000" rx="0" ry="0" style="stroke:none;fill:#cccccc;"/>
<rect x="465.400000" y="152.000000" width="38.700000" height="24.000000" rx="0" ry="0" style="stroke:none;fill:#003366;"/>
</a>
<a xlink:href="gate-0x7fd80abe09a0.svg">
<text x="484.750000" y="166.000000" font-family="Arial" font-size="7" text-anchor="middle" fill="#FFFFFF">gate(1)</text>
</a>
<circle cx="467.400000" cy="154.000000" r="1"/>
<line x1="462.400000" y1="163.000000" x2="465.400000" y2="164.000000"  transform="rotate(0.000000,465.400000,164.000000)" style="stroke: black; stroke-width:0.25;"/>
<line x1="462.400000" y1="165.000000" x2="465.400000" y2="164.000000"  transform="rotate(0.000000,465.400000,164.000000)" style="stroke: black; stroke-width:0.25;"/>
<line x1="15.000000" y1="15.000000" x2="15.000000" y2="313.000000"  style="stroke: black; stroke-linecap:round; stroke-width:0.25; stroke-dasharray:3,3;"/>
<line x1="15.000000" y1="313.000000" x2="521.100000" y2="313.000000"  style="stroke: black; stroke-linecap:round; stroke-width:0.25; stroke-dasharray:3,3;"/>
<line x1="521.100000" y1="313.000000" x2="521.100000" y2="15.000000"  style="stroke: black; stroke-linecap:round; stroke-width:0.25; stroke-dasharray:3,3;"/>
<line x1="15.000000" y1="15.000000" x2="20.000000" y2="15.000000"  style="stroke: black; stroke-linecap:round; stroke-width:0.25; stroke-dasharray:3,3;"/>
<line x1="119.975000" y1="15.000000" x2="521.100000" y2="15.000000"  style="stroke: black; stroke-linecap:round; stroke-width:0.25; stroke-dasharray:3,3;"/>
<text x="20.000000" y="17.000000" font-family="Arial" font-size="7">sawN(2)(((vgr...) : /) : max)</text>
<line x1="523.100000" y1="163.000000" x2="526.100000" y2="164.000000"  transform="rotate(0.000000,526.100000,164.000000)" style="stroke: black; stroke-width:0.25;"/>
<line x1="523.100000" y1="165.000000" x2="526.100000" y2="164.000000"  transform="rotate(0.000000,526.100000,164.000000)" style="stroke: black; stroke-width:0.25;"/>
<line x1="49.800000" y1="164.000000" x2="53.800000" y2="164.000000"  style="stroke:black; stroke-linecap:round; stroke-width:0.25;"/>
<line x1="53.800000" y1="164.000000" x2="53.800000" y2="164.000000"  style="stroke:black; stroke-linecap:round; stroke-width:0.25;"/>
<line x1="53.800000" y1="164.000000" x2="63.800000" y2="164.000000"  style="stroke:black; stroke-linecap:round; stroke-width:0.25;"/>
<line x1="63.800000" y1="164.000000" x2="67.800000" y2="164.000000"  style="stroke:black; stroke-linecap:round; stroke-width:0.25;"/>
<line x1="127.400000" y1="148.000000" x2="131.400000" y2="148.000000"  style="stroke:black; stroke-linecap:round; stroke-width:0.25;"/>
<line x1="127.400000" y1="180.000000" x2="131.400000" y2="180.000000"  style="stroke:black; stroke-linecap:round; stroke-width:0.25;"/>
<line x1="131.400000" y1="148.000000" x2="139.400000" y2="148.000000"  style="stroke:black; stroke-linecap:round; stroke-width:0.25;"/>
<line x1="131.400000" y1="168.000000" x2="139.400000" y2="168.000000"  style="stroke:black; stroke-linecap:round; stroke-width:0.25;"/>
<line x1="131.400000" y1="180.000000" x2="131.400000" y2="168.000000"  style="stroke:black; stroke-linecap:round; stroke-width:0.25;"/>
<line x1="131.400000" y1="180.000000" x2="131.400000" y2="180.000000"  style="stroke:black; stroke-linecap:round; stroke-width:0.25;"/>
<line x1="139.400000" y1="148.000000" x2="139.400000" y2="160.000000"  style="stroke:black; stroke-linecap:round; stroke-width:0.25;"/>
<line x1="139.400000" y1="160.000000" x2="139.400000" y2="160.000000"  style="stroke:black; stroke-linecap:round; stroke-width:0.25;"/>
<line x1="139.400000" y1="160.000000" x2="143.400000" y2="160.000000"  style="stroke:black; stroke-linecap:round; stroke-width:0.25;"/>
<line x1="139.400000" y1="168.000000" x2="143.400000" y2="168.000000"  style="stroke:black; stroke-linecap:round; stroke-width:0.25;"/>
<line x1="167.400000" y1="164.000000" x2="171.400000" y2="164.000000"  style="stroke:black; stroke-linecap:round; stroke-width:0.25;"/>
<line x1="171.400000" y1="164.000000" x2="181.400000" y2="164.000000"  style="stroke:black; stroke-linecap:round; stroke-width:0.25;"/>
<line x1="181.400000" y1="36.000000" x2="189.400000" y2="36.000000"  style="stroke:black; stroke-linecap:round; stroke-width:0.25;"/>
<line x1="181.400000" y1="164.000000" x2="181.400000" y2="36.000000"  style="stroke:black; stroke-linecap:round; stroke-width:0.25;"/>
<line x1="181.400000" y1="164.000000" x2="181.400000" y2="164.000000"  style="stroke:black; stroke-linecap:round; stroke-width:0.25;"/>
<line x1="189.400000" y1="36.000000" x2="282.050000" y2="36.000000"  style="stroke:black; stroke-linecap:round; stroke-width:0.25;"/>
<line x1="217.400000" y1="164.000000" x2="221.400000" y2="164.000000"  style="stroke:black; stroke-linecap:round; stroke-width:0.25;"/>
<line x1="217.400000" y1="196.000000" x2="221.400000" y2="196.000000"  style="stroke:black; stroke-linecap:round; stroke-width:0.25;"/>
<line x1="221.400000" y1="164.000000" x2="229.400000" y2="164.000000"  style="stroke:black; stroke-linecap:round; stroke-width:0.25;"/>
<line x1="221.400000" y1="184.000000" x2="229.400000" y2="184.000000"  style="stroke:black; stroke-linecap:round; stroke-width:0.25;"/>
<line x1="221.400000" y1="196.000000" x2="221.400000" y2="184.000000"  style="stroke:black; stroke-linecap:round; stroke-width:0.25;"/>
<line x1="221.400000" y1="196.000000" x2="221.400000" y2="196.000000"  style="stroke:black; stroke-linecap:round; stroke-width:0.25;"/>
<line x1="229.400000" y1="164.000000" x2="229.400000" y2="176.000000"  style="stroke:black; stroke-linecap:round; stroke-width:0.25;"/>
<line x1="229.400000" y1="176.000000" x2="229.400000" y2="176.000000"  style="stroke:black; stroke-linecap:round; stroke-width:0.25;"/>
<line x1="229.400000" y1="176.000000" x2="233.400000" y2="176.000000"  style="stroke:black; stroke-linecap:round; stroke-width:0.25;"/>
<line x1="229.400000" y1="184.000000" x2="233.400000" y2="184.000000"  style="stroke:black; stroke-linecap:round; stroke-width:0.25;"/>
<line x1="237.400000" y1="228.000000" x2="241.400000" y2="228.000000"  style="stroke:black; stroke-linecap:round; stroke-width:0.25;"/>
<line x1="241.400000" y1="228.000000" x2="261.400000" y2="228.000000"  style="stroke:black; stroke-linecap:round; stroke-width:0.25;"/>
<line x1="257.400000" y1="68.000000" x2="261.400000" y2="68.000000"  style="stroke:black; stroke-linecap:round; stroke-width:0.25;"/>
<line x1="257.400000" y1="100.000000" x2="261.400000" y2="100.000000"  style="stroke:black; stroke-linecap:round; stroke-width:0.25;"/>
<line x1="257.400000" y1="180.000000" x2="261.400000" y2="180.000000"  style="stroke:black; stroke-linecap:round; stroke-width:0.25;"/>
<line x1="257.400000" y1="260.000000" x2="261.400000" y2="260.000000"  style="stroke:black; stroke-linecap:round; stroke-width:0.25;"/>
<line x1="261.400000" y1="68.000000" x2="269.400000" y2="68.000000"  style="stroke:black; stroke-linecap:round; stroke-width:0.25;"/>
<line x1="261.400000" y1="88.000000" x2="269.400000" y2="88.000000"  style="stroke:black; stroke-linecap:round; stroke-width:0.25;"/>
<line x1="261.400000" y1="100.000000" x2="261.400000" y2="88.000000"  style="stroke:black; stroke-linecap:round; stroke-width:0.25;"/>
<line x1="261.400000" y1="100.000000" x2="261.400000" y2="100.000000"  style="stroke:black; stroke-linecap:round; stroke-width:0.25;"/>
<line x1="261.400000" y1="180.000000" x2="269.400000" y2="180.000000"  style="stroke:black; stroke-linecap:round; stroke-width:0.25;"/>
<line x1="261.400000" y1="200.000000" x2="269.400000" y2="200.000000"  style="stroke:black; stroke-linecap:round; stroke-width:0.25;"/>
<line x1="261.400000" y1="228.000000" x2="261.400000" y2="200.000000"  style="stroke:black; stroke-linecap:round; stroke-width:0.25;"/>
<line x1="261.400000" y1="228.000000" x2="261.400000" y2="228.000000"  style="stroke:black; stroke-linecap:round; stroke-width:0.25;"/>
<line x1="261.400000" y1="260.000000" x2="301.400000" y2="260.000000"  style="stroke:black; stroke-linecap:round; stroke-width:0.25;"/>
<line x1="269.400000" y1="68.000000" x2="269.400000" y2="80.000000"  style="stroke:black; stroke-linecap:round; stroke-width:0.25;"/>
<line x1="269.400000" y1="80.000000" x2="269.400000" y2="80.000000"  style="stroke:black; stroke-linecap:round; stroke-width:0.25;"/>
<line x1="269.400000" y1="80.000000" x2="273.400000" y2="80.000000"  style="stroke:black; stroke-linecap:round; stroke-width:0.25;"/>
<line x1="269.400000" y1="88.000000" x2="273.400000" y2="88.000000"  style="stroke:black; stroke-linecap:round; stroke-width:0.25;"/>
<line x1="269.400000" y1="180.000000" x2="269.400000" y2="192.000000"  style="stroke:black; stroke-linecap:round; stroke-width:0.25;"/>
<line x1="269.400000" y1="192.000000" x2="269.400000" y2="192.000000"  style="stroke:black; stroke-linecap:round; stroke-width:0.25;"/>
<line x1="269.400000" y1="192.000000" x2="273.400000" y2="192.000000"  style="stroke:black; stroke-linecap:round; stroke-width:0.25;"/>
<line x1="269.400000" y1="200.000000" x2="273.400000" y2="200.000000"  style="stroke:black; stroke-linecap:round; stroke-width:0.25;"/>
<line x1="277.400000" y1="132.000000" x2="281.400000" y2="132.000000"  style="stroke:black; stroke-linecap:round; stroke-width:0.25;"/>
<line x1="277.400000" y1="292.000000" x2="281.400000" y2="292.000000"  style="stroke:black; stroke-linecap:round; stroke-width:0.25;"/>
<line x1="281.400000" y1="132.000000" x2="301.400000" y2="132.000000"  style="stroke:black; stroke-linecap:round; stroke-width:0.25;"/>
<line x1="281.400000" y1="292.000000" x2="341.400000" y2="292.000000"  style="stroke:black; stroke-linecap:round; stroke-width:0.25;"/>
<line x1="282.050000" y1="36.000000" x2="286.050000" y2="36.000000"  style="stroke:black; stroke-linecap:round; stroke-width:0.25;"/>
<line x1="297.400000" y1="84.000000" x2="301.400000" y2="84.000000"  style="stroke:black; stroke-linecap:round; stroke-width:0.25;"/>
<line x1="297.400000" y1="196.000000" x2="301.400000" y2="196.000000"  style="stroke:black; stroke-linecap:round; stroke-width:0.25;"/>
<line x1="301.400000" y1="84.000000" x2="309.400000" y2="84.000000"  style="stroke:black; stroke-linecap:round; stroke-width:0.25;"/>
<line x1="301.400000" y1="104.000000" x2="309.400000" y2="104.000000"  style="stroke:black; stroke-linecap:round; stroke-width:0.25;"/>
<line x1="301.400000" y1="132.000000" x2="301.400000" y2="104.000000"  style="stroke:black; stroke-linecap:round; stroke-width:0.25;"/>
<line x1="301.400000" y1="132.000000" x2="301.400000" y2="132.000000"  style="stroke:black; stroke-linecap:round; stroke-width:0.25;"/>
<line x1="301.400000" y1="196.000000" x2="309.400000" y2="196.000000"  style="stroke:black; stroke-linecap:round; stroke-width:0.25;"/>
<line x1="301.400000" y1="216.000000" x2="309.400000" y2="216.000000"  style="stroke:black; stroke-linecap:round; stroke-width:0.25;"/>
<line x1="301.400000" y1="260.000000" x2="301.400000" y2="216.000000"  style="stroke:black; stroke-linecap:round; stroke-width:0.25;"/>
<line x1="301.400000" y1="260.000000" x2="301.400000" y2="260.000000"  style="stroke:black; stroke-linecap:round; stroke-width:0.25;"/>
<line x1="309.400000" y1="84.000000" x2="309.400000" y2="96.000000"  style="stroke:black; stroke-linecap:round; stroke-width:0.25;"/>
<line x1="309.400000" y1="96.000000" x2="309.400000" y2="96.000000"  style="stroke:black; stroke-linecap:round; stroke-width:0.25;"/>
<line x1="309.400000" y1="96.000000" x2="313.400000" y2="96.000000"  style="stroke:black; stroke-linecap:round; stroke-width:0.25;"/>
<line x1="309.400000" y1="104.000000" x2="313.400000" y2="104.000000"  style="stroke:black; stroke-linecap:round; stroke-width:0.25;"/>
<line x1="309.400000" y1="196.000000" x2="309.400000" y2="208.000000"  style="stroke:black; stroke-linecap:round; stroke-width:0.25;"/>
<line x1="309.400000" y1="208.000000" x2="309.400000" y2="208.000000"  style="stroke:black; stroke-linecap:round; stroke-width:0.25;"/>
<line x1="309.400000" y1="208.000000" x2="313.400000" y2="208.000000"  style="stroke:black; stroke-linecap:round; stroke-width:0.25;"/>
<line x1="309.400000" y1="216.000000" x2="313.400000" y2="216.000000"  style="stroke:black; stroke-linecap:round; stroke-width:0.25;"/>
<line x1="324.750000" y1="36.000000" x2="328.750000" y2="36.000000"  style="stroke:black; stroke-linecap:round; stroke-width:0.25;"/>
<line x1="328.750000" y1="36.000000" x2="421.400000" y2="36.000000"  style="stroke:black; stroke-linecap:round; stroke-width:0.25;"/>
<line x1="337.400000" y1="100.000000" x2="341.400000" y2="100.000000"  style="stroke:black; stroke-linecap:round; stroke-width:0.25;"/>
<line x1="337.400000" y1="212.000000" x2="341.400000" y2="212.000000"  style="stroke:black; stroke-linecap:round; stroke-width:0.25;"/>
<line x1="341.400000" y1="100.000000" x2="381.400000" y2="100.000000"  style="stroke:black; stroke-linecap:round; stroke-width:0.25;"/>
<line x1="341.400000" y1="212.000000" x2="349.400000" y2="212.000000"  style="stroke:black; stroke-linecap:round; stroke-width:0.25;"/>
<line x1="341.400000" y1="232.000000" x2="349.400000" y2="232.000000"  style="stroke:black; stroke-linecap:round; stroke-width:0.25;"/>
<line x1="341.400000" y1="292.000000" x2="341.400000" y2="232.000000"  style="stroke:black; stroke-linecap:round; stroke-width:0.25;"/>
<line x1="341.400000" y1="292.000000" x2="341.400000" y2="292.000000"  style="stroke:black; stroke-linecap:round; stroke-width:0.25;"/>
<line x1="349.400000" y1="212.000000" x2="349.400000" y2="224.000000"  style="stroke:black; stroke-linecap:round; stroke-width:0.25;"/>
<line x1="349.400000" y1="224.000000" x2="349.400000" y2="224.000000"  style="stroke:black; stroke-linecap:round; stroke-width:0.25;"/>
<line x1="349.400000" y1="224.000000" x2="353.400000" y2="224.000000"  style="stroke:black; stroke-linecap:round; stroke-width:0.25;"/>
<line x1="349.400000" y1="232.000000" x2="353.400000" y2="232.000000"  style="stroke:black; stroke-linecap:round; stroke-width:0.25;"/>
<line x1="377.400000" y1="228.000000" x2="381.400000" y2="228.000000"  style="stroke:black; stroke-linecap:round; stroke-width:0.25;"/>
<line x1="381.400000" y1="100.000000" x2="389.400000" y2="100.000000"  style="stroke:black; stroke-linecap:round; stroke-width:0.25;"/>
<line x1="381.400000" y1="184.000000" x2="389.400000" y2="184.000000"  style="stroke:black; stroke-linecap:round; stroke-width:0.25;"/>
<line x1="381.400000" y1="228.000000" x2="381.400000" y2="184.000000"  style="stroke:black; stroke-linecap:round; stroke-width:0.25;"/>
<line x1="381.400000" y1="228.000000" x2="381.400000" y2="228.000000"  style="stroke:black; stroke-linecap:round; stroke-width:0.25;"/>
<line x1="389.400000" y1="100.000000" x2="389.400000" y2="176.000000"  style="stroke:black; stroke-linecap:round; stroke-width:0.25;"/>
<line x1="389.400000" y1="176.000000" x2="389.400000" y2="176.000000"  style="stroke:black; stroke-linecap:round; stroke-width:0.25;"/>
<line x1="389.400000" y1="176.000000" x2="393.400000" y2="176.000000"  style="stroke:black; stroke-linecap:round; stroke-width:0.25;"/>
<line x1="389.400000" y1="184.000000" x2="393.400000" y2="184.000000"  style="stroke:black; stroke-linecap:round; stroke-width:0.25;"/>
<line x1="417.400000" y1="180.000000" x2="421.400000" y2="180.000000"  style="stroke:black; stroke-linecap:round; stroke-width:0.25;"/>
<line x1="421.400000" y1="36.000000" x2="429.400000" y2="36.000000"  style="stroke:black; stroke-linecap:round; stroke-width:0.25;"/>
<line x1="421.400000" y1="168.000000" x2="429.400000" y2="168.000000"  style="stroke:black; stroke-linecap:round; stroke-width:0.25;"/>
<line x1="421.400000" y1="180.000000" x2="421.400000" y2="168.000000"  style="stroke:black; stroke-linecap:round; stroke-width:0.25;"/>
<line x1="421.400000" y1="180.000000" x2="421.400000" y2="180.000000"  style="stroke:black; stroke-linecap:round; stroke-width:0.25;"/>
<line x1="429.400000" y1="36.000000" x2="429.400000" y2="160.000000"  style="stroke:black; stroke-linecap:round; stroke-width:0.25;"/>
<line x1="429.400000" y1="160.000000" x2="429.400000" y2="160.000000"  style="stroke:black; stroke-linecap:round; stroke-width:0.25;"/>
<line x1="429.400000" y1="160.000000" x2="433.400000" y2="160.000000"  style="stroke:black; stroke-linecap:round; stroke-width:0.25;"/>
<line x1="429.400000" y1="168.000000" x2="433.400000" y2="168.000000"  style="stroke:black; stroke-linecap:round; stroke-width:0.25;"/>
<line x1="457.400000" y1="164.000000" x2="461.400000" y2="164.000000"  style="stroke:black; stroke-linecap:round; stroke-width:0.25;"/>
<line x1="461.400000" y1="164.000000" x2="461.400000" y2="164.000000"  style="stroke:black; stroke-linecap:round; stroke-width:0.25;"/>
<line x1="461.400000" y1="164.000000" x2="465.400000" y2="164.000000"  style="stroke:black; stroke-linecap:round; stroke-width:0.25;"/>
<line x1="504.100000" y1="164.000000" x2="508.100000" y2="164.000000"  style="stroke:black; stroke-linecap:round; stroke-width:0.25;"/>
<line x1="508.100000" y1="164.000000" x2="508.100000" y2="164.000000"  style="stroke:black; stroke-linecap:round; stroke-width:0.25;"/>
<line x1="508.100000" y1="164.000000" x2="512.100000" y2="164.000000"  style="stroke:black; stroke-linecap:round; stroke-width:0.25;"/>
<line x1="512.100000" y1="164.000000" x2="516.100000" y2="164.000000"  style="stroke:black; stroke-linecap:round; stroke-width:0.25;"/>
<line x1="516.100000" y1="164.000000" x2="526.100000" y2="164.000000"  style="stroke:black; stroke-linecap:round; stroke-width:0.25;"/>
</svg>
