<?xml version="1.0"?>
<svg xmlns="http://www.w3.org/2000/svg" xmlns:xlink="http://www.w3.org/1999/xlink" viewBox="0 0 660.000000 224.000000" width="330.000000mm" height="112.000000mm" version="1.1">
<a xlink:href="process.svg">
<rect x="1.000000" y="1.000000" width="659.000000" height="223.000000" rx="0" ry="0" style="stroke:none;fill:#cccccc;"/>
<rect x="0.000000" y="0.000000" width="659.000000" height="223.000000" rx="0" ry="0" style="stroke:none;fill:#ffffff;"/>
</a>
<text x="10.000000" y="7.000000" font-family="Arial" font-size="7"></text>
<a xlink:href="sub-0x7fe11bb07fe0.svg">
<rect x="147.000000" y="157.000000" width="24.000000" height="24.000000" rx="0" ry="0" style="stroke:none;fill:#cccccc;"/>
<rect x="146.000000" y="156.000000" width="24.000000" height="24.000000" rx="0" ry="0" style="stroke:none;fill:#003366;"/>
</a>
<a xlink:href="sub-0x7fe11bb07fe0.svg">
<text x="158.000000" y="170.000000" font-family="Arial" font-size="7" text-anchor="middle" fill="#FFFFFF">sub</text>
</a>
<circle cx="148.000000" cy="158.000000" r="1"/>
<line x1="143.000000" y1="163.000000" x2="146.000000" y2="164.000000"  transform="rotate(0.000000,146.000000,164.000000)" style="stroke: black; stroke-width:0.25;"/>
<line x1="143.000000" y1="165.000000" x2="146.000000" y2="164.000000"  transform="rotate(0.000000,146.000000,164.000000)" style="stroke: black; stroke-width:0.25;"/>
<line x1="143.000000" y1="171.000000" x2="146.000000" y2="172.000000"  transform="rotate(0.000000,146.000000,172.000000)" style="stroke: black; stroke-width:0.25;"/>
<line x1="143.000000" y1="173.000000" x2="146.000000" y2="172.000000"  transform="rotate(0.000000,146.000000,172.000000)" style="stroke: black; stroke-width:0.25;"/>
<a xlink:href="a1d-0x7fe11b9d0e80.svg">
<rect x="187.000000" y="117.000000" width="24.000000" height="24.000000" rx="0" ry="0" style="stroke:none;fill:#cccccc;"/>
<rect x="186.000000" y="116.000000" width="24.000000" height="24.000000" rx="0" ry="0" style="stroke:none;fill:#003366;"/>
</a>
<a xlink:href="a1d-0x7fe11b9d0e80.svg">
<text x="198.000000" y="130.000000" font-family="Arial" font-size="7" text-anchor="middle" fill="#FFFFFF">a1d</text>
</a>
<circle cx="208.000000" cy="138.000000" r="1"/>
<a xlink:href="a0d-0x7fe11b9cfd20.svg">
<rect x="187.000000" y="85.000000" width="24.000000" height="24.000000" rx="0" ry="0" style="stroke:none;fill:#cccccc;"/>
<rect x="186.000000" y="84.000000" width="24.000000" height="24.000000" rx="0" ry="0" style="stroke:none;fill:#003366;"/>
</a>
<a xlink:href="a0d-0x7fe11b9cfd20.svg">
<text x="198.000000" y="98.000000" font-family="Arial" font-size="7" text-anchor="middle" fill="#FFFFFF">a0d</text>
</a>
<circle cx="208.000000" cy="106.000000" r="1"/>
<rect x="147.000000" y="101.000000" width="24.000000" height="24.000000" rx="0" ry="0" style="stroke:none;fill:#cccccc;"/>
<rect x="146.000000" y="100.000000" width="24.000000" height="24.000000" rx="0" ry="0" style="stroke:none;fill:#4B71A1;"/>
<text x="158.000000" y="114.000000" font-family="Arial" font-size="7" text-anchor="middle" fill="#FFFFFF">/</text>
<circle cx="168.000000" cy="122.000000" r="1"/>
<line x1="173.000000" y1="115.000000" x2="170.000000" y2="116.000000"  transform="rotate(0.000000,170.000000,116.000000)" style="stroke: black; stroke-width:0.25;"/>
<line x1="173.000000" y1="117.000000" x2="170.000000" y2="116.000000"  transform="rotate(0.000000,170.000000,116.000000)" style="stroke: black; stroke-width:0.25;"/>
<line x1="173.000000" y1="107.000000" x2="170.000000" y2="108.000000"  transform="rotate(0.000000,170.000000,108.000000)" style="stroke: black; stroke-width:0.25;"/>
<line x1="173.000000" y1="109.000000" x2="170.000000" y2="108.000000"  transform="rotate(0.000000,170.000000,108.000000)" style="stroke: black; stroke-width:0.25;"/>
<rect x="107.000000" y="105.000000" width="24.000000" height="24.000000" rx="0" ry="0" style="stroke:none;fill:#cccccc;"/>
<rect x="106.000000" y="104.000000" width="24.000000" height="24.000000" rx="0" ry="0" style="stroke:none;fill:#4B71A1;"/>
<text x="118.000000" y="118.000000" font-family="Arial" font-size="7" text-anchor="middle" fill="#FFFFFF">*</text>
<circle cx="128.000000" cy="126.000000" r="1"/>
<line x1="133.000000" y1="119.000000" x2="130.000000" y2="120.000000"  transform="rotate(0.000000,130.000000,120.000000)" style="stroke: black; stroke-width:0.25;"/>
<line x1="133.000000" y1="121.000000" x2="130.000000" y2="120.000000"  transform="rotate(0.000000,130.000000,120.000000)" style="stroke: black; stroke-width:0.25;"/>
<line x1="133.000000" y1="111.000000" x2="130.000000" y2="112.000000"  transform="rotate(0.000000,130.000000,112.000000)" style="stroke: black; stroke-width:0.25;"/>
<line x1="133.000000" y1="113.000000" x2="130.000000" y2="112.000000"  transform="rotate(0.000000,130.000000,112.000000)" style="stroke: black; stroke-width:0.25;"/>
<rect x="207.000000" y="45.000000" width="24.000000" height="24.000000" rx="0" ry="0" style="stroke:none;fill:#cccccc;"/>
<rect x="206.000000" y="44.000000" width="24.000000" height="24.000000" rx="0" ry="0" style="stroke:none;fill:#f44800;"/>
<text x="218.000000" y="58.000000" font-family="Arial" font-size="7" text-anchor="middle" fill="#FFFFFF">1</text>
<circle cx="228.000000" cy="66.000000" r="1"/>
<rect x="167.000000" y="49.000000" width="24.000000" height="24.000000" rx="0" ry="0" style="stroke:none;fill:#cccccc;"/>
<rect x="166.000000" y="48.000000" width="24.000000" height="24.000000" rx="0" ry="0" style="stroke:none;fill:#4B71A1;"/>
<text x="178.000000" y="62.000000" font-family="Arial" font-size="7" text-anchor="middle" fill="#FFFFFF">@</text>
<circle cx="188.000000" cy="70.000000" r="1"/>
<line x1="193.000000" y1="63.000000" x2="190.000000" y2="64.000000"  transform="rotate(0.000000,190.000000,64.000000)" style="stroke: black; stroke-width:0.25;"/>
<line x1="193.000000" y1="65.000000" x2="190.000000" y2="64.000000"  transform="rotate(0.000000,190.000000,64.000000)" style="stroke: black; stroke-width:0.25;"/>
<line x1="193.000000" y1="55.000000" x2="190.000000" y2="56.000000"  transform="rotate(0.000000,190.000000,56.000000)" style="stroke: black; stroke-width:0.25;"/>
<line x1="193.000000" y1="57.000000" x2="190.000000" y2="56.000000"  transform="rotate(0.000000,190.000000,56.000000)" style="stroke: black; stroke-width:0.25;"/>
<rect x="127.000000" y="45.000000" width="24.000000" height="24.000000" rx="0" ry="0" style="stroke:none;fill:#cccccc;"/>
<rect x="126.000000" y="44.000000" width="24.000000" height="24.000000" rx="0" ry="0" style="stroke:none;fill:#f44800;"/>
<text x="138.000000" y="58.000000" font-family="Arial" font-size="7" text-anchor="middle" fill="#FFFFFF">1</text>
<circle cx="148.000000" cy="66.000000" r="1"/>
<rect x="87.000000" y="49.000000" width="24.000000" height="24.000000" rx="0" ry="0" style="stroke:none;fill:#cccccc;"/>
<rect x="86.000000" y="48.000000" width="24.000000" height="24.000000" rx="0" ry="0" style="stroke:none;fill:#4B71A1;"/>
<text x="98.000000" y="62.000000" font-family="Arial" font-size="7" text-anchor="middle" fill="#FFFFFF">*</text>
<circle cx="108.000000" cy="70.000000" r="1"/>
<line x1="113.000000" y1="63.000000" x2="110.000000" y2="64.000000"  transform="rotate(0.000000,110.000000,64.000000)" style="stroke: black; stroke-width:0.25;"/>
<line x1="113.000000" y1="65.000000" x2="110.000000" y2="64.000000"  transform="rotate(0.000000,110.000000,64.000000)" style="stroke: black; stroke-width:0.25;"/>
<line x1="113.000000" y1="55.000000" x2="110.000000" y2="56.000000"  transform="rotate(0.000000,110.000000,56.000000)" style="stroke: black; stroke-width:0.25;"/>
<line x1="113.000000" y1="57.000000" x2="110.000000" y2="56.000000"  transform="rotate(0.000000,110.000000,56.000000)" style="stroke: black; stroke-width:0.25;"/>
<line x1="270.000000" y1="168.000000" x2="270.000000" y2="164.000000"  style="stroke:black; stroke-linecap:round; stroke-width:0.25;"/>
<line x1="270.000000" y1="164.000000" x2="274.000000" y2="164.000000"  style="stroke:black; stroke-linecap:round; stroke-width:0.25;"/>
<line x1="274.000000" y1="164.000000" x2="274.000000" y2="168.000000"  style="stroke:black; stroke-linecap:round; stroke-width:0.25;"/>
<a xlink:href="b0d-0x7fe11b9d5030.svg">
<rect x="409.000000" y="33.000000" width="24.000000" height="24.000000" rx="0" ry="0" style="stroke:none;fill:#cccccc;"/>
<rect x="408.000000" y="32.000000" width="24.000000" height="24.000000" rx="0" ry="0" style="stroke:none;fill:#003366;"/>
</a>
<a xlink:href="b0d-0x7fe11b9d5030.svg">
<text x="420.000000" y="46.000000" font-family="Arial" font-size="7" text-anchor="middle" fill="#FFFFFF">b0d</text>
</a>
<circle cx="410.000000" cy="34.000000" r="1"/>
<a xlink:href="a0d-0x7fe11b9cfd20.svg">
<rect x="409.000000" y="65.000000" width="24.000000" height="24.000000" rx="0" ry="0" style="stroke:none;fill:#cccccc;"/>
<rect x="408.000000" y="64.000000" width="24.000000" height="24.000000" rx="0" ry="0" style="stroke:none;fill:#003366;"/>
</a>
<a xlink:href="a0d-0x7fe11b9cfd20.svg">
<text x="420.000000" y="78.000000" font-family="Arial" font-size="7" text-anchor="middle" fill="#FFFFFF">a0d</text>
</a>
<circle cx="410.000000" cy="66.000000" r="1"/>
<rect x="449.000000" y="49.000000" width="24.000000" height="24.000000" rx="0" ry="0" style="stroke:none;fill:#cccccc;"/>
<rect x="448.000000" y="48.000000" width="24.000000" height="24.000000" rx="0" ry="0" style="stroke:none;fill:#4B71A1;"/>
<text x="460.000000" y="62.000000" font-family="Arial" font-size="7" text-anchor="middle" fill="#FFFFFF">/</text>
<circle cx="450.000000" cy="50.000000" r="1"/>
<line x1="445.000000" y1="55.000000" x2="448.000000" y2="56.000000"  transform="rotate(0.000000,448.000000,56.000000)" style="stroke: black; stroke-width:0.25;"/>
<line x1="445.000000" y1="57.000000" x2="448.000000" y2="56.000000"  transform="rotate(0.000000,448.000000,56.000000)" style="stroke: black; stroke-width:0.25;"/>
<line x1="445.000000" y1="63.000000" x2="448.000000" y2="64.000000"  transform="rotate(0.000000,448.000000,64.000000)" style="stroke: black; stroke-width:0.25;"/>
<line x1="445.000000" y1="65.000000" x2="448.000000" y2="64.000000"  transform="rotate(0.000000,448.000000,64.000000)" style="stroke: black; stroke-width:0.25;"/>
<rect x="489.000000" y="45.000000" width="24.000000" height="24.000000" rx="0" ry="0" style="stroke:none;fill:#cccccc;"/>
<rect x="488.000000" y="44.000000" width="24.000000" height="24.000000" rx="0" ry="0" style="stroke:none;fill:#4B71A1;"/>
<text x="500.000000" y="58.000000" font-family="Arial" font-size="7" text-anchor="middle" fill="#FFFFFF">*</text>
<circle cx="490.000000" cy="46.000000" r="1"/>
<line x1="485.000000" y1="51.000000" x2="488.000000" y2="52.000000"  transform="rotate(0.000000,488.000000,52.000000)" style="stroke: black; stroke-width:0.25;"/>
<line x1="485.000000" y1="53.000000" x2="488.000000" y2="52.000000"  transform="rotate(0.000000,488.000000,52.000000)" style="stroke: black; stroke-width:0.25;"/>
<line x1="485.000000" y1="59.000000" x2="488.000000" y2="60.000000"  transform="rotate(0.000000,488.000000,60.000000)" style="stroke: black; stroke-width:0.25;"/>
<line x1="485.000000" y1="61.000000" x2="488.000000" y2="60.000000"  transform="rotate(0.000000,488.000000,60.000000)" style="stroke: black; stroke-width:0.25;"/>
<rect x="389.000000" y="105.000000" width="24.000000" height="24.000000" rx="0" ry="0" style="stroke:none;fill:#cccccc;"/>
<rect x="388.000000" y="104.000000" width="24.000000" height="24.000000" rx="0" ry="0" style="stroke:none;fill:#f44800;"/>
<text x="400.000000" y="118.000000" font-family="Arial" font-size="7" text-anchor="middle" fill="#FFFFFF">1</text>
<circle cx="390.000000" cy="106.000000" r="1"/>
<rect x="429.000000" y="101.000000" width="24.000000" height="24.000000" rx="0" ry="0" style="stroke:none;fill:#cccccc;"/>
<rect x="428.000000" y="100.000000" width="24.000000" height="24.000000" rx="0" ry="0" style="stroke:none;fill:#4B71A1;"/>
<text x="440.000000" y="114.000000" font-family="Arial" font-size="7" text-anchor="middle" fill="#FFFFFF">@</text>
<circle cx="430.000000" cy="102.000000" r="1"/>
<line x1="425.000000" y1="107.000000" x2="428.000000" y2="108.000000"  transform="rotate(0.000000,428.000000,108.000000)" style="stroke: black; stroke-width:0.25;"/>
<line x1="425.000000" y1="109.000000" x2="428.000000" y2="108.000000"  transform="rotate(0.000000,428.000000,108.000000)" style="stroke: black; stroke-width:0.25;"/>
<line x1="425.000000" y1="115.000000" x2="428.000000" y2="116.000000"  transform="rotate(0.000000,428.000000,116.000000)" style="stroke: black; stroke-width:0.25;"/>
<line x1="425.000000" y1="117.000000" x2="428.000000" y2="116.000000"  transform="rotate(0.000000,428.000000,116.000000)" style="stroke: black; stroke-width:0.25;"/>
<rect x="469.000000" y="105.000000" width="24.000000" height="24.000000" rx="0" ry="0" style="stroke:none;fill:#cccccc;"/>
<rect x="468.000000" y="104.000000" width="24.000000" height="24.000000" rx="0" ry="0" style="stroke:none;fill:#f44800;"/>
<text x="480.000000" y="118.000000" font-family="Arial" font-size="7" text-anchor="middle" fill="#FFFFFF">0</text>
<circle cx="470.000000" cy="106.000000" r="1"/>
<rect x="509.000000" y="101.000000" width="24.000000" height="24.000000" rx="0" ry="0" style="stroke:none;fill:#cccccc;"/>
<rect x="508.000000" y="100.000000" width="24.000000" height="24.000000" rx="0" ry="0" style="stroke:none;fill:#4B71A1;"/>
<text x="520.000000" y="114.000000" font-family="Arial" font-size="7" text-anchor="middle" fill="#FFFFFF">*</text>
<circle cx="510.000000" cy="102.000000" r="1"/>
<line x1="505.000000" y1="107.000000" x2="508.000000" y2="108.000000"  transform="rotate(0.000000,508.000000,108.000000)" style="stroke: black; stroke-width:0.25;"/>
<line x1="505.000000" y1="109.000000" x2="508.000000" y2="108.000000"  transform="rotate(0.000000,508.000000,108.000000)" style="stroke: black; stroke-width:0.25;"/>
<line x1="505.000000" y1="115.000000" x2="508.000000" y2="116.000000"  transform="rotate(0.000000,508.000000,116.000000)" style="stroke: black; stroke-width:0.25;"/>
<line x1="505.000000" y1="117.000000" x2="508.000000" y2="116.000000"  transform="rotate(0.000000,508.000000,116.000000)" style="stroke: black; stroke-width:0.25;"/>
<rect x="349.000000" y="145.000000" width="24.000000" height="24.000000" rx="0" ry="0" style="stroke:none;fill:#cccccc;"/>
<rect x="348.000000" y="144.000000" width="24.000000" height="24.000000" rx="0" ry="0" style="stroke:none;fill:#f44800;"/>
<text x="360.000000" y="158.000000" font-family="Arial" font-size="7" text-anchor="middle" fill="#FFFFFF">1</text>
<circle cx="350.000000" cy="146.000000" r="1"/>
<rect x="349.000000" y="177.000000" width="24.000000" height="24.000000" rx="0" ry="0" style="stroke:none;fill:#cccccc;"/>
<rect x="348.000000" y="176.000000" width="24.000000" height="24.000000" rx="0" ry="0" style="stroke:none;fill:#f44800;"/>
<text x="360.000000" y="190.000000" font-family="Arial" font-size="7" text-anchor="middle" fill="#FFFFFF">1</text>
<circle cx="350.000000" cy="178.000000" r="1"/>
<rect x="389.000000" y="161.000000" width="24.000000" height="24.000000" rx="0" ry="0" style="stroke:none;fill:#cccccc;"/>
<rect x="388.000000" y="160.000000" width="24.000000" height="24.000000" rx="0" ry="0" style="stroke:none;fill:#4B71A1;"/>
<text x="400.000000" y="174.000000" font-family="Arial" font-size="7" text-anchor="middle" fill="#FFFFFF">+</text>
<circle cx="390.000000" cy="162.000000" r="1"/>
<line x1="385.000000" y1="167.000000" x2="388.000000" y2="168.000000"  transform="rotate(0.000000,388.000000,168.000000)" style="stroke: black; stroke-width:0.25;"/>
<line x1="385.000000" y1="169.000000" x2="388.000000" y2="168.000000"  transform="rotate(0.000000,388.000000,168.000000)" style="stroke: black; stroke-width:0.25;"/>
<line x1="385.000000" y1="175.000000" x2="388.000000" y2="176.000000"  transform="rotate(0.000000,388.000000,176.000000)" style="stroke: black; stroke-width:0.25;"/>
<line x1="385.000000" y1="177.000000" x2="388.000000" y2="176.000000"  transform="rotate(0.000000,388.000000,176.000000)" style="stroke: black; stroke-width:0.25;"/>
<rect x="429.000000" y="157.000000" width="24.000000" height="24.000000" rx="0" ry="0" style="stroke:none;fill:#cccccc;"/>
<rect x="428.000000" y="156.000000" width="24.000000" height="24.000000" rx="0" ry="0" style="stroke:none;fill:#4B71A1;"/>
<text x="440.000000" y="170.000000" font-family="Arial" font-size="7" text-anchor="middle" fill="#FFFFFF">@</text>
<circle cx="430.000000" cy="158.000000" r="1"/>
<line x1="425.000000" y1="163.000000" x2="428.000000" y2="164.000000"  transform="rotate(0.000000,428.000000,164.000000)" style="stroke: black; stroke-width:0.25;"/>
<line x1="425.000000" y1="165.000000" x2="428.000000" y2="164.000000"  transform="rotate(0.000000,428.000000,164.000000)" style="stroke: black; stroke-width:0.25;"/>
<line x1="425.000000" y1="171.000000" x2="428.000000" y2="172.000000"  transform="rotate(0.000000,428.000000,172.000000)" style="stroke: black; stroke-width:0.25;"/>
<line x1="425.000000" y1="173.000000" x2="428.000000" y2="172.000000"  transform="rotate(0.000000,428.000000,172.000000)" style="stroke: black; stroke-width:0.25;"/>
<a xlink:href="b2d-0x7fe11b9d3060.svg">
<rect x="469.000000" y="145.000000" width="24.000000" height="24.000000" rx="0" ry="0" style="stroke:none;fill:#cccccc;"/>
<rect x="468.000000" y="144.000000" width="24.000000" height="24.000000" rx="0" ry="0" style="stroke:none;fill:#003366;"/>
</a>
<a xlink:href="b2d-0x7fe11b9d3060.svg">
<text x="480.000000" y="158.000000" font-family="Arial" font-size="7" text-anchor="middle" fill="#FFFFFF">b2d</text>
</a>
<circle cx="470.000000" cy="146.000000" r="1"/>
<a xlink:href="a0d-0x7fe11b9cfd20.svg">
<rect x="469.000000" y="177.000000" width="24.000000" height="24.000000" rx="0" ry="0" style="stroke:none;fill:#cccccc;"/>
<rect x="468.000000" y="176.000000" width="24.000000" height="24.000000" rx="0" ry="0" style="stroke:none;fill:#003366;"/>
</a>
<a xlink:href="a0d-0x7fe11b9cfd20.svg">
<text x="480.000000" y="190.000000" font-family="Arial" font-size="7" text-anchor="middle" fill="#FFFFFF">a0d</text>
</a>
<circle cx="470.000000" cy="178.000000" r="1"/>
<rect x="509.000000" y="161.000000" width="24.000000" height="24.000000" rx="0" ry="0" style="stroke:none;fill:#cccccc;"/>
<rect x="508.000000" y="160.000000" width="24.000000" height="24.000000" rx="0" ry="0" style="stroke:none;fill:#4B71A1;"/>
<text x="520.000000" y="174.000000" font-family="Arial" font-size="7" text-anchor="middle" fill="#FFFFFF">/</text>
<circle cx="510.000000" cy="162.000000" r="1"/>
<line x1="505.000000" y1="167.000000" x2="508.000000" y2="168.000000"  transform="rotate(0.000000,508.000000,168.000000)" style="stroke: black; stroke-width:0.25;"/>
<line x1="505.000000" y1="169.000000" x2="508.000000" y2="168.000000"  transform="rotate(0.000000,508.000000,168.000000)" style="stroke: black; stroke-width:0.25;"/>
<line x1="505.000000" y1="175.000000" x2="508.000000" y2="176.000000"  transform="rotate(0.000000,508.000000,176.000000)" style="stroke: black; stroke-width:0.25;"/>
<line x1="505.000000" y1="177.000000" x2="508.000000" y2="176.000000"  transform="rotate(0.000000,508.000000,176.000000)" style="stroke: black; stroke-width:0.25;"/>
<rect x="549.000000" y="157.000000" width="24.000000" height="24.000000" rx="0" ry="0" style="stroke:none;fill:#cccccc;"/>
<rect x="548.000000" y="156.000000" width="24.000000" height="24.000000" rx="0" ry="0" style="stroke:none;fill:#4B71A1;"/>
<text x="560.000000" y="170.000000" font-family="Arial" font-size="7" text-anchor="middle" fill="#FFFFFF">*</text>
<circle cx="550.000000" cy="158.000000" r="1"/>
<line x1="545.000000" y1="163.000000" x2="548.000000" y2="164.000000"  transform="rotate(0.000000,548.000000,164.000000)" style="stroke: black; stroke-width:0.25;"/>
<line x1="545.000000" y1="165.000000" x2="548.000000" y2="164.000000"  transform="rotate(0.000000,548.000000,164.000000)" style="stroke: black; stroke-width:0.25;"/>
<line x1="545.000000" y1="171.000000" x2="548.000000" y2="172.000000"  transform="rotate(0.000000,548.000000,172.000000)" style="stroke: black; stroke-width:0.25;"/>
<line x1="545.000000" y1="173.000000" x2="548.000000" y2="172.000000"  transform="rotate(0.000000,548.000000,172.000000)" style="stroke: black; stroke-width:0.25;"/>
<line x1="15.000000" y1="15.000000" x2="15.000000" y2="209.000000"  style="stroke: black; stroke-linecap:round; stroke-width:0.25; stroke-dasharray:3,3;"/>
<line x1="15.000000" y1="209.000000" x2="645.000000" y2="209.000000"  style="stroke: black; stroke-linecap:round; stroke-width:0.25; stroke-dasharray:3,3;"/>
<line x1="645.000000" y1="209.000000" x2="645.000000" y2="15.000000"  style="stroke: black; stroke-linecap:round; stroke-width:0.25; stroke-dasharray:3,3;"/>
<line x1="15.000000" y1="15.000000" x2="20.000000" y2="15.000000"  style="stroke: black; stroke-linecap:round; stroke-width:0.25; stroke-dasharray:3,3;"/>
<line x1="81.275000" y1="15.000000" x2="645.000000" y2="15.000000"  style="stroke: black; stroke-linecap:round; stroke-width:0.25; stroke-dasharray:3,3;"/>
<text x="20.000000" y="17.000000" font-family="Arial" font-size="7">bandpass(1)(2)(0)</text>
<line x1="647.000000" y1="111.000000" x2="650.000000" y2="112.000000"  transform="rotate(0.000000,650.000000,112.000000)" style="stroke: black; stroke-width:0.25;"/>
<line x1="647.000000" y1="113.000000" x2="650.000000" y2="112.000000"  transform="rotate(0.000000,650.000000,112.000000)" style="stroke: black; stroke-width:0.25;"/>
<line x1="10.000000" y1="112.000000" x2="20.000000" y2="112.000000"  style="stroke:black; stroke-linecap:round; stroke-width:0.25;"/>
<line x1="20.000000" y1="112.000000" x2="24.000000" y2="112.000000"  style="stroke:black; stroke-linecap:round; stroke-width:0.25;"/>
<line x1="24.000000" y1="112.000000" x2="28.000000" y2="112.000000"  style="stroke:black; stroke-linecap:round; stroke-width:0.25;"/>
<line x1="28.000000" y1="112.000000" x2="36.000000" y2="112.000000"  style="stroke:black; stroke-linecap:round; stroke-width:0.25;"/>
<line x1="36.000000" y1="112.000000" x2="36.000000" y2="172.000000"  style="stroke:black; stroke-linecap:round; stroke-width:0.25;"/>
<line x1="36.000000" y1="172.000000" x2="36.000000" y2="172.000000"  style="stroke:black; stroke-linecap:round; stroke-width:0.25;"/>
<line x1="36.000000" y1="172.000000" x2="44.000000" y2="172.000000"  style="stroke:black; stroke-linecap:round; stroke-width:0.25;"/>
<line x1="44.000000" y1="96.000000" x2="44.000000" y2="96.000000"  style="stroke:black; stroke-linecap:round; stroke-width:0.25;"/>
<line x1="44.000000" y1="96.000000" x2="44.000000" y2="164.000000"  style="stroke:black; stroke-linecap:round; stroke-width:0.25;"/>
<line x1="44.000000" y1="164.000000" x2="44.000000" y2="164.000000"  style="stroke:black; stroke-linecap:round; stroke-width:0.25;"/>
<line x1="44.000000" y1="164.000000" x2="142.000000" y2="164.000000"  style="stroke:black; stroke-linecap:round; stroke-width:0.25;"/>
<line x1="44.000000" y1="172.000000" x2="142.000000" y2="172.000000"  style="stroke:black; stroke-linecap:round; stroke-width:0.25;"/>
<line x1="48.000000" y1="96.000000" x2="44.000000" y2="96.000000"  style="stroke:black; stroke-linecap:round; stroke-width:0.25;"/>
<line x1="52.000000" y1="96.000000" x2="48.000000" y2="96.000000"  style="stroke:black; stroke-linecap:round; stroke-width:0.25;"/>
<line x1="82.000000" y1="60.000000" x2="52.000000" y2="96.000000"  style="stroke:black; stroke-linecap:round; stroke-width:0.25;"/>
<line x1="82.000000" y1="116.000000" x2="52.000000" y2="96.000000"  style="stroke:black; stroke-linecap:round; stroke-width:0.25;"/>
<line x1="86.000000" y1="60.000000" x2="82.000000" y2="60.000000"  style="stroke:black; stroke-linecap:round; stroke-width:0.25;"/>
<line x1="102.000000" y1="116.000000" x2="82.000000" y2="116.000000"  style="stroke:black; stroke-linecap:round; stroke-width:0.25;"/>
<line x1="106.000000" y1="116.000000" x2="102.000000" y2="116.000000"  style="stroke:black; stroke-linecap:round; stroke-width:0.25;"/>
<line x1="114.000000" y1="56.000000" x2="110.000000" y2="56.000000"  style="stroke:black; stroke-linecap:round; stroke-width:0.25;"/>
<line x1="114.000000" y1="64.000000" x2="110.000000" y2="64.000000"  style="stroke:black; stroke-linecap:round; stroke-width:0.25;"/>
<line x1="114.000000" y1="64.000000" x2="114.000000" y2="64.000000"  style="stroke:black; stroke-linecap:round; stroke-width:0.25;"/>
<line x1="114.000000" y1="76.000000" x2="114.000000" y2="64.000000"  style="stroke:black; stroke-linecap:round; stroke-width:0.25;"/>
<line x1="122.000000" y1="56.000000" x2="114.000000" y2="56.000000"  style="stroke:black; stroke-linecap:round; stroke-width:0.25;"/>
<line x1="122.000000" y1="76.000000" x2="114.000000" y2="76.000000"  style="stroke:black; stroke-linecap:round; stroke-width:0.25;"/>
<line x1="126.000000" y1="56.000000" x2="122.000000" y2="56.000000"  style="stroke:black; stroke-linecap:round; stroke-width:0.25;"/>
<line x1="134.000000" y1="112.000000" x2="130.000000" y2="112.000000"  style="stroke:black; stroke-linecap:round; stroke-width:0.25;"/>
<line x1="134.000000" y1="120.000000" x2="130.000000" y2="120.000000"  style="stroke:black; stroke-linecap:round; stroke-width:0.25;"/>
<line x1="134.000000" y1="120.000000" x2="134.000000" y2="120.000000"  style="stroke:black; stroke-linecap:round; stroke-width:0.25;"/>
<line x1="134.000000" y1="148.000000" x2="134.000000" y2="120.000000"  style="stroke:black; stroke-linecap:round; stroke-width:0.25;"/>
<line x1="138.000000" y1="76.000000" x2="122.000000" y2="76.000000"  style="stroke:black; stroke-linecap:round; stroke-width:0.25;"/>
<line x1="142.000000" y1="112.000000" x2="134.000000" y2="112.000000"  style="stroke:black; stroke-linecap:round; stroke-width:0.25;"/>
<line x1="142.000000" y1="148.000000" x2="134.000000" y2="148.000000"  style="stroke:black; stroke-linecap:round; stroke-width:0.25;"/>
<line x1="142.000000" y1="164.000000" x2="146.000000" y2="164.000000"  style="stroke:black; stroke-linecap:round; stroke-width:0.25;"/>
<line x1="142.000000" y1="172.000000" x2="146.000000" y2="172.000000"  style="stroke:black; stroke-linecap:round; stroke-width:0.25;"/>
<line x1="146.000000" y1="112.000000" x2="142.000000" y2="112.000000"  style="stroke:black; stroke-linecap:round; stroke-width:0.25;"/>
<line x1="154.000000" y1="76.000000" x2="138.000000" y2="76.000000"  style="stroke:black; stroke-linecap:round; stroke-width:0.25;"/>
<line x1="162.000000" y1="60.000000" x2="162.000000" y2="60.000000"  style="stroke:black; stroke-linecap:round; stroke-width:0.25;"/>
<line x1="162.000000" y1="60.000000" x2="162.000000" y2="76.000000"  style="stroke:black; stroke-linecap:round; stroke-width:0.25;"/>
<line x1="162.000000" y1="76.000000" x2="154.000000" y2="76.000000"  style="stroke:black; stroke-linecap:round; stroke-width:0.25;"/>
<line x1="166.000000" y1="60.000000" x2="162.000000" y2="60.000000"  style="stroke:black; stroke-linecap:round; stroke-width:0.25;"/>
<line x1="170.000000" y1="168.000000" x2="174.000000" y2="168.000000"  style="stroke:black; stroke-linecap:round; stroke-width:0.25;"/>
<line x1="174.000000" y1="108.000000" x2="170.000000" y2="108.000000"  style="stroke:black; stroke-linecap:round; stroke-width:0.25;"/>
<line x1="174.000000" y1="116.000000" x2="170.000000" y2="116.000000"  style="stroke:black; stroke-linecap:round; stroke-width:0.25;"/>
<line x1="174.000000" y1="116.000000" x2="174.000000" y2="116.000000"  style="stroke:black; stroke-linecap:round; stroke-width:0.25;"/>
<line x1="174.000000" y1="128.000000" x2="174.000000" y2="116.000000"  style="stroke:black; stroke-linecap:round; stroke-width:0.25;"/>
<line x1="174.000000" y1="168.000000" x2="272.000000" y2="168.000000"  style="stroke:black; stroke-linecap:round; stroke-width:0.25;"/>
<line x1="178.000000" y1="148.000000" x2="142.000000" y2="148.000000"  style="stroke:black; stroke-linecap:round; stroke-width:0.25;"/>
<line x1="182.000000" y1="96.000000" x2="182.000000" y2="96.000000"  style="stroke:black; stroke-linecap:round; stroke-width:0.25;"/>
<line x1="182.000000" y1="96.000000" x2="182.000000" y2="108.000000"  style="stroke:black; stroke-linecap:round; stroke-width:0.25;"/>
<line x1="182.000000" y1="108.000000" x2="174.000000" y2="108.000000"  style="stroke:black; stroke-linecap:round; stroke-width:0.25;"/>
<line x1="182.000000" y1="128.000000" x2="174.000000" y2="128.000000"  style="stroke:black; stroke-linecap:round; stroke-width:0.25;"/>
<line x1="186.000000" y1="96.000000" x2="182.000000" y2="96.000000"  style="stroke:black; stroke-linecap:round; stroke-width:0.25;"/>
<line x1="186.000000" y1="128.000000" x2="182.000000" y2="128.000000"  style="stroke:black; stroke-linecap:round; stroke-width:0.25;"/>
<line x1="194.000000" y1="56.000000" x2="190.000000" y2="56.000000"  style="stroke:black; stroke-linecap:round; stroke-width:0.25;"/>
<line x1="194.000000" y1="64.000000" x2="190.000000" y2="64.000000"  style="stroke:black; stroke-linecap:round; stroke-width:0.25;"/>
<line x1="194.000000" y1="64.000000" x2="194.000000" y2="64.000000"  style="stroke:black; stroke-linecap:round; stroke-width:0.25;"/>
<line x1="194.000000" y1="76.000000" x2="194.000000" y2="64.000000"  style="stroke:black; stroke-linecap:round; stroke-width:0.25;"/>
<line x1="202.000000" y1="56.000000" x2="194.000000" y2="56.000000"  style="stroke:black; stroke-linecap:round; stroke-width:0.25;"/>
<line x1="202.000000" y1="76.000000" x2="194.000000" y2="76.000000"  style="stroke:black; stroke-linecap:round; stroke-width:0.25;"/>
<line x1="206.000000" y1="56.000000" x2="202.000000" y2="56.000000"  style="stroke:black; stroke-linecap:round; stroke-width:0.25;"/>
<line x1="214.000000" y1="148.000000" x2="178.000000" y2="148.000000"  style="stroke:black; stroke-linecap:round; stroke-width:0.25;"/>
<line x1="218.000000" y1="76.000000" x2="202.000000" y2="76.000000"  style="stroke:black; stroke-linecap:round; stroke-width:0.25;"/>
<line x1="234.000000" y1="76.000000" x2="218.000000" y2="76.000000"  style="stroke:black; stroke-linecap:round; stroke-width:0.25;"/>
<line x1="234.000000" y1="148.000000" x2="214.000000" y2="148.000000"  style="stroke:black; stroke-linecap:round; stroke-width:0.25;"/>
<line x1="264.000000" y1="96.000000" x2="234.000000" y2="76.000000"  style="stroke:black; stroke-linecap:round; stroke-width:0.25;"/>
<line x1="264.000000" y1="96.000000" x2="234.000000" y2="148.000000"  style="stroke:black; stroke-linecap:round; stroke-width:0.25;"/>
<line x1="268.000000" y1="96.000000" x2="264.000000" y2="96.000000"  style="stroke:black; stroke-linecap:round; stroke-width:0.25;"/>
<line x1="272.000000" y1="96.000000" x2="268.000000" y2="96.000000"  style="stroke:black; stroke-linecap:round; stroke-width:0.25;"/>
<line x1="272.000000" y1="96.000000" x2="272.000000" y2="96.000000"  style="stroke:black; stroke-linecap:round; stroke-width:0.25;"/>
<line x1="272.000000" y1="164.000000" x2="272.000000" y2="96.000000"  style="stroke:black; stroke-linecap:round; stroke-width:0.25;"/>
<line x1="272.000000" y1="168.000000" x2="274.000000" y2="168.000000"  style="stroke:black; stroke-linecap:round; stroke-width:0.25;"/>
<line x1="274.000000" y1="168.000000" x2="280.000000" y2="168.000000"  style="stroke:black; stroke-linecap:round; stroke-width:0.25;"/>
<line x1="280.000000" y1="112.000000" x2="288.000000" y2="112.000000"  style="stroke:black; stroke-linecap:round; stroke-width:0.25;"/>
<line x1="280.000000" y1="168.000000" x2="280.000000" y2="112.000000"  style="stroke:black; stroke-linecap:round; stroke-width:0.25;"/>
<line x1="280.000000" y1="168.000000" x2="280.000000" y2="168.000000"  style="stroke:black; stroke-linecap:round; stroke-width:0.25;"/>
<line x1="288.000000" y1="112.000000" x2="292.000000" y2="112.000000"  style="stroke:black; stroke-linecap:round; stroke-width:0.25;"/>
<line x1="292.000000" y1="112.000000" x2="296.000000" y2="112.000000"  style="stroke:black; stroke-linecap:round; stroke-width:0.25;"/>
<line x1="296.000000" y1="112.000000" x2="344.000000" y2="24.000000"  style="stroke:black; stroke-linecap:round; stroke-width:0.25;"/>
<line x1="296.000000" y1="112.000000" x2="344.000000" y2="96.000000"  style="stroke:black; stroke-linecap:round; stroke-width:0.25;"/>
<line x1="296.000000" y1="112.000000" x2="344.000000" y2="136.000000"  style="stroke:black; stroke-linecap:round; stroke-width:0.25;"/>
<line x1="344.000000" y1="24.000000" x2="404.000000" y2="24.000000"  style="stroke:black; stroke-linecap:round; stroke-width:0.25;"/>
<line x1="344.000000" y1="96.000000" x2="384.000000" y2="96.000000"  style="stroke:black; stroke-linecap:round; stroke-width:0.25;"/>
<line x1="344.000000" y1="136.000000" x2="380.000000" y2="136.000000"  style="stroke:black; stroke-linecap:round; stroke-width:0.25;"/>
<line x1="372.000000" y1="156.000000" x2="376.000000" y2="156.000000"  style="stroke:black; stroke-linecap:round; stroke-width:0.25;"/>
<line x1="372.000000" y1="188.000000" x2="376.000000" y2="188.000000"  style="stroke:black; stroke-linecap:round; stroke-width:0.25;"/>
<line x1="376.000000" y1="156.000000" x2="384.000000" y2="156.000000"  style="stroke:black; stroke-linecap:round; stroke-width:0.25;"/>
<line x1="376.000000" y1="176.000000" x2="384.000000" y2="176.000000"  style="stroke:black; stroke-linecap:round; stroke-width:0.25;"/>
<line x1="376.000000" y1="188.000000" x2="376.000000" y2="176.000000"  style="stroke:black; stroke-linecap:round; stroke-width:0.25;"/>
<line x1="376.000000" y1="188.000000" x2="376.000000" y2="188.000000"  style="stroke:black; stroke-linecap:round; stroke-width:0.25;"/>
<line x1="380.000000" y1="136.000000" x2="416.000000" y2="136.000000"  style="stroke:black; stroke-linecap:round; stroke-width:0.25;"/>
<line x1="384.000000" y1="96.000000" x2="400.000000" y2="96.000000"  style="stroke:black; stroke-linecap:round; stroke-width:0.25;"/>
<line x1="384.000000" y1="156.000000" x2="384.000000" y2="168.000000"  style="stroke:black; stroke-linecap:round; stroke-width:0.25;"/>
<line x1="384.000000" y1="168.000000" x2="384.000000" y2="168.000000"  style="stroke:black; stroke-linecap:round; stroke-width:0.25;"/>
<line x1="384.000000" y1="168.000000" x2="388.000000" y2="168.000000"  style="stroke:black; stroke-linecap:round; stroke-width:0.25;"/>
<line x1="384.000000" y1="176.000000" x2="388.000000" y2="176.000000"  style="stroke:black; stroke-linecap:round; stroke-width:0.25;"/>
<line x1="400.000000" y1="96.000000" x2="416.000000" y2="96.000000"  style="stroke:black; stroke-linecap:round; stroke-width:0.25;"/>
<line x1="404.000000" y1="24.000000" x2="440.000000" y2="24.000000"  style="stroke:black; stroke-linecap:round; stroke-width:0.25;"/>
<line x1="412.000000" y1="116.000000" x2="416.000000" y2="116.000000"  style="stroke:black; stroke-linecap:round; stroke-width:0.25;"/>
<line x1="412.000000" y1="172.000000" x2="416.000000" y2="172.000000"  style="stroke:black; stroke-linecap:round; stroke-width:0.25;"/>
<line x1="416.000000" y1="96.000000" x2="424.000000" y2="96.000000"  style="stroke:black; stroke-linecap:round; stroke-width:0.25;"/>
<line x1="416.000000" y1="116.000000" x2="424.000000" y2="116.000000"  style="stroke:black; stroke-linecap:round; stroke-width:0.25;"/>
<line x1="416.000000" y1="136.000000" x2="424.000000" y2="136.000000"  style="stroke:black; stroke-linecap:round; stroke-width:0.25;"/>
<line x1="416.000000" y1="172.000000" x2="424.000000" y2="172.000000"  style="stroke:black; stroke-linecap:round; stroke-width:0.25;"/>
<line x1="424.000000" y1="96.000000" x2="424.000000" y2="108.000000"  style="stroke:black; stroke-linecap:round; stroke-width:0.25;"/>
<line x1="424.000000" y1="108.000000" x2="424.000000" y2="108.000000"  style="stroke:black; stroke-linecap:round; stroke-width:0.25;"/>
<line x1="424.000000" y1="108.000000" x2="428.000000" y2="108.000000"  style="stroke:black; stroke-linecap:round; stroke-width:0.25;"/>
<line x1="424.000000" y1="116.000000" x2="428.000000" y2="116.000000"  style="stroke:black; stroke-linecap:round; stroke-width:0.25;"/>
<line x1="424.000000" y1="136.000000" x2="424.000000" y2="164.000000"  style="stroke:black; stroke-linecap:round; stroke-width:0.25;"/>
<line x1="424.000000" y1="164.000000" x2="424.000000" y2="164.000000"  style="stroke:black; stroke-linecap:round; stroke-width:0.25;"/>
<line x1="424.000000" y1="164.000000" x2="428.000000" y2="164.000000"  style="stroke:black; stroke-linecap:round; stroke-width:0.25;"/>
<line x1="424.000000" y1="172.000000" x2="428.000000" y2="172.000000"  style="stroke:black; stroke-linecap:round; stroke-width:0.25;"/>
<line x1="432.000000" y1="44.000000" x2="436.000000" y2="44.000000"  style="stroke:black; stroke-linecap:round; stroke-width:0.25;"/>
<line x1="432.000000" y1="76.000000" x2="436.000000" y2="76.000000"  style="stroke:black; stroke-linecap:round; stroke-width:0.25;"/>
<line x1="436.000000" y1="44.000000" x2="444.000000" y2="44.000000"  style="stroke:black; stroke-linecap:round; stroke-width:0.25;"/>
<line x1="436.000000" y1="64.000000" x2="444.000000" y2="64.000000"  style="stroke:black; stroke-linecap:round; stroke-width:0.25;"/>
<line x1="436.000000" y1="76.000000" x2="436.000000" y2="64.000000"  style="stroke:black; stroke-linecap:round; stroke-width:0.25;"/>
<line x1="436.000000" y1="76.000000" x2="436.000000" y2="76.000000"  style="stroke:black; stroke-linecap:round; stroke-width:0.25;"/>
<line x1="440.000000" y1="24.000000" x2="476.000000" y2="24.000000"  style="stroke:black; stroke-linecap:round; stroke-width:0.25;"/>
<line x1="444.000000" y1="44.000000" x2="444.000000" y2="56.000000"  style="stroke:black; stroke-linecap:round; stroke-width:0.25;"/>
<line x1="444.000000" y1="56.000000" x2="444.000000" y2="56.000000"  style="stroke:black; stroke-linecap:round; stroke-width:0.25;"/>
<line x1="444.000000" y1="56.000000" x2="448.000000" y2="56.000000"  style="stroke:black; stroke-linecap:round; stroke-width:0.25;"/>
<line x1="444.000000" y1="64.000000" x2="448.000000" y2="64.000000"  style="stroke:black; stroke-linecap:round; stroke-width:0.25;"/>
<line x1="452.000000" y1="112.000000" x2="456.000000" y2="112.000000"  style="stroke:black; stroke-linecap:round; stroke-width:0.25;"/>
<line x1="452.000000" y1="168.000000" x2="456.000000" y2="168.000000"  style="stroke:black; stroke-linecap:round; stroke-width:0.25;"/>
<line x1="456.000000" y1="96.000000" x2="464.000000" y2="96.000000"  style="stroke:black; stroke-linecap:round; stroke-width:0.25;"/>
<line x1="456.000000" y1="112.000000" x2="456.000000" y2="96.000000"  style="stroke:black; stroke-linecap:round; stroke-width:0.25;"/>
<line x1="456.000000" y1="112.000000" x2="456.000000" y2="112.000000"  style="stroke:black; stroke-linecap:round; stroke-width:0.25;"/>
<line x1="456.000000" y1="136.000000" x2="464.000000" y2="136.000000"  style="stroke:black; stroke-linecap:round; stroke-width:0.25;"/>
<line x1="456.000000" y1="168.000000" x2="456.000000" y2="136.000000"  style="stroke:black; stroke-linecap:round; stroke-width:0.25;"/>
<line x1="456.000000" y1="168.000000" x2="456.000000" y2="168.000000"  style="stroke:black; stroke-linecap:round; stroke-width:0.25;"/>
<line x1="464.000000" y1="96.000000" x2="480.000000" y2="96.000000"  style="stroke:black; stroke-linecap:round; stroke-width:0.25;"/>
<line x1="464.000000" y1="136.000000" x2="500.000000" y2="136.000000"  style="stroke:black; stroke-linecap:round; stroke-width:0.25;"/>
<line x1="472.000000" y1="60.000000" x2="476.000000" y2="60.000000"  style="stroke:black; stroke-linecap:round; stroke-width:0.25;"/>
<line x1="476.000000" y1="24.000000" x2="484.000000" y2="24.000000"  style="stroke:black; stroke-linecap:round; stroke-width:0.25;"/>
<line x1="476.000000" y1="60.000000" x2="484.000000" y2="60.000000"  style="stroke:black; stroke-linecap:round; stroke-width:0.25;"/>
<line x1="480.000000" y1="96.000000" x2="496.000000" y2="96.000000"  style="stroke:black; stroke-linecap:round; stroke-width:0.25;"/>
<line x1="484.000000" y1="24.000000" x2="484.000000" y2="52.000000"  style="stroke:black; stroke-linecap:round; stroke-width:0.25;"/>
<line x1="484.000000" y1="52.000000" x2="484.000000" y2="52.000000"  style="stroke:black; stroke-linecap:round; stroke-width:0.25;"/>
<line x1="484.000000" y1="52.000000" x2="488.000000" y2="52.000000"  style="stroke:black; stroke-linecap:round; stroke-width:0.25;"/>
<line x1="484.000000" y1="60.000000" x2="488.000000" y2="60.000000"  style="stroke:black; stroke-linecap:round; stroke-width:0.25;"/>
<line x1="492.000000" y1="116.000000" x2="496.000000" y2="116.000000"  style="stroke:black; stroke-linecap:round; stroke-width:0.25;"/>
<line x1="492.000000" y1="156.000000" x2="496.000000" y2="156.000000"  style="stroke:black; stroke-linecap:round; stroke-width:0.25;"/>
<line x1="492.000000" y1="188.000000" x2="496.000000" y2="188.000000"  style="stroke:black; stroke-linecap:round; stroke-width:0.25;"/>
<line x1="496.000000" y1="96.000000" x2="504.000000" y2="96.000000"  style="stroke:black; stroke-linecap:round; stroke-width:0.25;"/>
<line x1="496.000000" y1="116.000000" x2="504.000000" y2="116.000000"  style="stroke:black; stroke-linecap:round; stroke-width:0.25;"/>
<line x1="496.000000" y1="156.000000" x2="504.000000" y2="156.000000"  style="stroke:black; stroke-linecap:round; stroke-width:0.25;"/>
<line x1="496.000000" y1="176.000000" x2="504.000000" y2="176.000000"  style="stroke:black; stroke-linecap:round; stroke-width:0.25;"/>
<line x1="496.000000" y1="188.000000" x2="496.000000" y2="176.000000"  style="stroke:black; stroke-linecap:round; stroke-width:0.25;"/>
<line x1="496.000000" y1="188.000000" x2="496.000000" y2="188.000000"  style="stroke:black; stroke-linecap:round; stroke-width:0.25;"/>
<line x1="500.000000" y1="136.000000" x2="536.000000" y2="136.000000"  style="stroke:black; stroke-linecap:round; stroke-width:0.25;"/>
<line x1="504.000000" y1="96.000000" x2="504.000000" y2="108.000000"  style="stroke:black; stroke-linecap:round; stroke-width:0.25;"/>
<line x1="504.000000" y1="108.000000" x2="504.000000" y2="108.000000"  style="stroke:black; stroke-linecap:round; stroke-width:0.25;"/>
<line x1="504.000000" y1="108.000000" x2="508.000000" y2="108.000000"  style="stroke:black; stroke-linecap:round; stroke-width:0.25;"/>
<line x1="504.000000" y1="116.000000" x2="508.000000" y2="116.000000"  style="stroke:black; stroke-linecap:round; stroke-width:0.25;"/>
<line x1="504.000000" y1="156.000000" x2="504.000000" y2="168.000000"  style="stroke:black; stroke-linecap:round; stroke-width:0.25;"/>
<line x1="504.000000" y1="168.000000" x2="504.000000" y2="168.000000"  style="stroke:black; stroke-linecap:round; stroke-width:0.25;"/>
<line x1="504.000000" y1="168.000000" x2="508.000000" y2="168.000000"  style="stroke:black; stroke-linecap:round; stroke-width:0.25;"/>
<line x1="504.000000" y1="176.000000" x2="508.000000" y2="176.000000"  style="stroke:black; stroke-linecap:round; stroke-width:0.25;"/>
<line x1="512.000000" y1="56.000000" x2="516.000000" y2="56.000000"  style="stroke:black; stroke-linecap:round; stroke-width:0.25;"/>
<line x1="516.000000" y1="56.000000" x2="576.000000" y2="56.000000"  style="stroke:black; stroke-linecap:round; stroke-width:0.25;"/>
<line x1="532.000000" y1="112.000000" x2="536.000000" y2="112.000000"  style="stroke:black; stroke-linecap:round; stroke-width:0.25;"/>
<line x1="532.000000" y1="172.000000" x2="536.000000" y2="172.000000"  style="stroke:black; stroke-linecap:round; stroke-width:0.25;"/>
<line x1="536.000000" y1="112.000000" x2="576.000000" y2="112.000000"  style="stroke:black; stroke-linecap:round; stroke-width:0.25;"/>
<line x1="536.000000" y1="136.000000" x2="544.000000" y2="136.000000"  style="stroke:black; stroke-linecap:round; stroke-width:0.25;"/>
<line x1="536.000000" y1="172.000000" x2="544.000000" y2="172.000000"  style="stroke:black; stroke-linecap:round; stroke-width:0.25;"/>
<line x1="544.000000" y1="136.000000" x2="544.000000" y2="164.000000"  style="stroke:black; stroke-linecap:round; stroke-width:0.25;"/>
<line x1="544.000000" y1="164.000000" x2="544.000000" y2="164.000000"  style="stroke:black; stroke-linecap:round; stroke-width:0.25;"/>
<line x1="544.000000" y1="164.000000" x2="548.000000" y2="164.000000"  style="stroke:black; stroke-linecap:round; stroke-width:0.25;"/>
<line x1="544.000000" y1="172.000000" x2="548.000000" y2="172.000000"  style="stroke:black; stroke-linecap:round; stroke-width:0.25;"/>
<line x1="572.000000" y1="168.000000" x2="576.000000" y2="168.000000"  style="stroke:black; stroke-linecap:round; stroke-width:0.25;"/>
<line x1="576.000000" y1="56.000000" x2="624.000000" y2="112.000000"  style="stroke:black; stroke-linecap:round; stroke-width:0.25;"/>
<line x1="576.000000" y1="112.000000" x2="624.000000" y2="112.000000"  style="stroke:black; stroke-linecap:round; stroke-width:0.25;"/>
<line x1="576.000000" y1="168.000000" x2="624.000000" y2="112.000000"  style="stroke:black; stroke-linecap:round; stroke-width:0.25;"/>
<line x1="624.000000" y1="112.000000" x2="628.000000" y2="112.000000"  style="stroke:black; stroke-linecap:round; stroke-width:0.25;"/>
<line x1="628.000000" y1="112.000000" x2="632.000000" y2="112.000000"  style="stroke:black; stroke-linecap:round; stroke-width:0.25;"/>
<line x1="632.000000" y1="112.000000" x2="632.000000" y2="112.000000"  style="stroke:black; stroke-linecap:round; stroke-width:0.25;"/>
<line x1="632.000000" y1="112.000000" x2="636.000000" y2="112.000000"  style="stroke:black; stroke-linecap:round; stroke-width:0.25;"/>
<line x1="636.000000" y1="112.000000" x2="640.000000" y2="112.000000"  style="stroke:black; stroke-linecap:round; stroke-width:0.25;"/>
<line x1="640.000000" y1="112.000000" x2="650.000000" y2="112.000000"  style="stroke:black; stroke-linecap:round; stroke-width:0.25;"/>
</svg>
